<?xml version="1.0" encoding="utf-8" standalone="no"?>
<!DOCTYPE svg PUBLIC "-//W3C//DTD SVG 1.1//EN"
  "http://www.w3.org/Graphics/SVG/1.1/DTD/svg11.dtd">
<svg xmlns:xlink="http://www.w3.org/1999/xlink" width="864pt" height="432pt" viewBox="0 0 864 432" xmlns="http://www.w3.org/2000/svg" version="1.1">
 <metadata>
  <rdf:RDF xmlns:dc="http://purl.org/dc/elements/1.1/" xmlns:cc="http://creativecommons.org/ns#" xmlns:rdf="http://www.w3.org/1999/02/22-rdf-syntax-ns#">
   <cc:Work>
    <dc:type rdf:resource="http://purl.org/dc/dcmitype/StillImage"/>
    <dc:date>1980-01-01T00:00:00+00:00</dc:date>
    <dc:format>image/svg+xml</dc:format>
    <dc:creator>
     <cc:Agent>
      <dc:title>Matplotlib v3.9.2, https://matplotlib.org/</dc:title>
     </cc:Agent>
    </dc:creator>
   </cc:Work>
  </rdf:RDF>
 </metadata>
 <defs>
  <style type="text/css">*{stroke-linejoin: round; stroke-linecap: butt}</style>
 </defs>
 <g id="figure_1">
  <g id="patch_1">
   <path d="M 0 432 
L 864 432 
L 864 0 
L 0 0 
L 0 432 
z
" style="fill: none"/>
  </g>
  <g id="axes_1">
   <g id="patch_2">
    <path d="M 47.81 379.437127 
L 853.2 379.437127 
L 853.2 25.44 
L 47.81 25.44 
L 47.81 379.437127 
z
" style="fill: none"/>
   </g>
   <g id="matplotlib.axis_1">
    <g id="xtick_1">
     <g id="line2d_1">
      <path d="M 80.720794 379.437127 
L 80.720794 25.44 
" clip-path="url(#p48e71de185)" style="fill: none; stroke: #b0b0b0; stroke-width: 0.8; stroke-linecap: square"/>
     </g>
     <g id="line2d_2">
      <defs>
       <path id="mdc52dcfa62" d="M 0 0 
L 0 3.5 
" style="stroke: #000000; stroke-width: 0.8"/>
      </defs>
      <g>
       <use xlink:href="#mdc52dcfa62" x="80.720794" y="379.437127" style="stroke: #000000; stroke-width: 0.8"/>
      </g>
     </g>
     <g id="text_1">
      <!-- 0 -->
      <g transform="translate(80.422484 396.309) rotate(-45) scale(0.1 -0.1)">
       <defs>
        <path id="DejaVuSans-30" d="M 2034 4250 
Q 1547 4250 1301 3770 
Q 1056 3291 1056 2328 
Q 1056 1369 1301 889 
Q 1547 409 2034 409 
Q 2525 409 2770 889 
Q 3016 1369 3016 2328 
Q 3016 3291 2770 3770 
Q 2525 4250 2034 4250 
z
M 2034 4750 
Q 2819 4750 3233 4129 
Q 3647 3509 3647 2328 
Q 3647 1150 3233 529 
Q 2819 -91 2034 -91 
Q 1250 -91 836 529 
Q 422 1150 422 2328 
Q 422 3509 836 4129 
Q 1250 4750 2034 4750 
z
" transform="scale(0.015625)"/>
       </defs>
       <use xlink:href="#DejaVuSans-30"/>
      </g>
     </g>
    </g>
    <g id="xtick_2">
     <g id="line2d_3">
      <path d="M 173.166846 379.437127 
L 173.166846 25.44 
" clip-path="url(#p48e71de185)" style="fill: none; stroke: #b0b0b0; stroke-width: 0.8; stroke-linecap: square"/>
     </g>
     <g id="line2d_4">
      <g>
       <use xlink:href="#mdc52dcfa62" x="173.166846" y="379.437127" style="stroke: #000000; stroke-width: 0.8"/>
      </g>
     </g>
     <g id="text_2">
      <!-- 25 -->
      <g transform="translate(170.619052 400.807967) rotate(-45) scale(0.1 -0.1)">
       <defs>
        <path id="DejaVuSans-32" d="M 1228 531 
L 3431 531 
L 3431 0 
L 469 0 
L 469 531 
Q 828 903 1448 1529 
Q 2069 2156 2228 2338 
Q 2531 2678 2651 2914 
Q 2772 3150 2772 3378 
Q 2772 3750 2511 3984 
Q 2250 4219 1831 4219 
Q 1534 4219 1204 4116 
Q 875 4013 500 3803 
L 500 4441 
Q 881 4594 1212 4672 
Q 1544 4750 1819 4750 
Q 2544 4750 2975 4387 
Q 3406 4025 3406 3419 
Q 3406 3131 3298 2873 
Q 3191 2616 2906 2266 
Q 2828 2175 2409 1742 
Q 1991 1309 1228 531 
z
" transform="scale(0.015625)"/>
        <path id="DejaVuSans-35" d="M 691 4666 
L 3169 4666 
L 3169 4134 
L 1269 4134 
L 1269 2991 
Q 1406 3038 1543 3061 
Q 1681 3084 1819 3084 
Q 2600 3084 3056 2656 
Q 3513 2228 3513 1497 
Q 3513 744 3044 326 
Q 2575 -91 1722 -91 
Q 1428 -91 1123 -41 
Q 819 9 494 109 
L 494 744 
Q 775 591 1075 516 
Q 1375 441 1709 441 
Q 2250 441 2565 725 
Q 2881 1009 2881 1497 
Q 2881 1984 2565 2268 
Q 2250 2553 1709 2553 
Q 1456 2553 1204 2497 
Q 953 2441 691 2322 
L 691 4666 
z
" transform="scale(0.015625)"/>
       </defs>
       <use xlink:href="#DejaVuSans-32"/>
       <use xlink:href="#DejaVuSans-35" x="63.623047"/>
      </g>
     </g>
    </g>
    <g id="xtick_3">
     <g id="line2d_5">
      <path d="M 265.612897 379.437127 
L 265.612897 25.44 
" clip-path="url(#p48e71de185)" style="fill: none; stroke: #b0b0b0; stroke-width: 0.8; stroke-linecap: square"/>
     </g>
     <g id="line2d_6">
      <g>
       <use xlink:href="#mdc52dcfa62" x="265.612897" y="379.437127" style="stroke: #000000; stroke-width: 0.8"/>
      </g>
     </g>
     <g id="text_3">
      <!-- 50 -->
      <g transform="translate(263.065103 400.807967) rotate(-45) scale(0.1 -0.1)">
       <use xlink:href="#DejaVuSans-35"/>
       <use xlink:href="#DejaVuSans-30" x="63.623047"/>
      </g>
     </g>
    </g>
    <g id="xtick_4">
     <g id="line2d_7">
      <path d="M 358.058949 379.437127 
L 358.058949 25.44 
" clip-path="url(#p48e71de185)" style="fill: none; stroke: #b0b0b0; stroke-width: 0.8; stroke-linecap: square"/>
     </g>
     <g id="line2d_8">
      <g>
       <use xlink:href="#mdc52dcfa62" x="358.058949" y="379.437127" style="stroke: #000000; stroke-width: 0.8"/>
      </g>
     </g>
     <g id="text_4">
      <!-- 75 -->
      <g transform="translate(355.511154 400.807967) rotate(-45) scale(0.1 -0.1)">
       <defs>
        <path id="DejaVuSans-37" d="M 525 4666 
L 3525 4666 
L 3525 4397 
L 1831 0 
L 1172 0 
L 2766 4134 
L 525 4134 
L 525 4666 
z
" transform="scale(0.015625)"/>
       </defs>
       <use xlink:href="#DejaVuSans-37"/>
       <use xlink:href="#DejaVuSans-35" x="63.623047"/>
      </g>
     </g>
    </g>
    <g id="xtick_5">
     <g id="line2d_9">
      <path d="M 450.505 379.437127 
L 450.505 25.44 
" clip-path="url(#p48e71de185)" style="fill: none; stroke: #b0b0b0; stroke-width: 0.8; stroke-linecap: square"/>
     </g>
     <g id="line2d_10">
      <g>
       <use xlink:href="#mdc52dcfa62" x="450.505" y="379.437127" style="stroke: #000000; stroke-width: 0.8"/>
      </g>
     </g>
     <g id="text_5">
      <!-- 100 -->
      <g transform="translate(445.707722 405.306934) rotate(-45) scale(0.1 -0.1)">
       <defs>
        <path id="DejaVuSans-31" d="M 794 531 
L 1825 531 
L 1825 4091 
L 703 3866 
L 703 4441 
L 1819 4666 
L 2450 4666 
L 2450 531 
L 3481 531 
L 3481 0 
L 794 0 
L 794 531 
z
" transform="scale(0.015625)"/>
       </defs>
       <use xlink:href="#DejaVuSans-31"/>
       <use xlink:href="#DejaVuSans-30" x="63.623047"/>
       <use xlink:href="#DejaVuSans-30" x="127.246094"/>
      </g>
     </g>
    </g>
    <g id="xtick_6">
     <g id="line2d_11">
      <path d="M 542.951051 379.437127 
L 542.951051 25.44 
" clip-path="url(#p48e71de185)" style="fill: none; stroke: #b0b0b0; stroke-width: 0.8; stroke-linecap: square"/>
     </g>
     <g id="line2d_12">
      <g>
       <use xlink:href="#mdc52dcfa62" x="542.951051" y="379.437127" style="stroke: #000000; stroke-width: 0.8"/>
      </g>
     </g>
     <g id="text_6">
      <!-- 125 -->
      <g transform="translate(538.153774 405.306934) rotate(-45) scale(0.1 -0.1)">
       <use xlink:href="#DejaVuSans-31"/>
       <use xlink:href="#DejaVuSans-32" x="63.623047"/>
       <use xlink:href="#DejaVuSans-35" x="127.246094"/>
      </g>
     </g>
    </g>
    <g id="xtick_7">
     <g id="line2d_13">
      <path d="M 635.397103 379.437127 
L 635.397103 25.44 
" clip-path="url(#p48e71de185)" style="fill: none; stroke: #b0b0b0; stroke-width: 0.8; stroke-linecap: square"/>
     </g>
     <g id="line2d_14">
      <g>
       <use xlink:href="#mdc52dcfa62" x="635.397103" y="379.437127" style="stroke: #000000; stroke-width: 0.8"/>
      </g>
     </g>
     <g id="text_7">
      <!-- 150 -->
      <g transform="translate(630.599825 405.306934) rotate(-45) scale(0.1 -0.1)">
       <use xlink:href="#DejaVuSans-31"/>
       <use xlink:href="#DejaVuSans-35" x="63.623047"/>
       <use xlink:href="#DejaVuSans-30" x="127.246094"/>
      </g>
     </g>
    </g>
    <g id="xtick_8">
     <g id="line2d_15">
      <path d="M 727.843154 379.437127 
L 727.843154 25.44 
" clip-path="url(#p48e71de185)" style="fill: none; stroke: #b0b0b0; stroke-width: 0.8; stroke-linecap: square"/>
     </g>
     <g id="line2d_16">
      <g>
       <use xlink:href="#mdc52dcfa62" x="727.843154" y="379.437127" style="stroke: #000000; stroke-width: 0.8"/>
      </g>
     </g>
     <g id="text_8">
      <!-- 175 -->
      <g transform="translate(723.045877 405.306934) rotate(-45) scale(0.1 -0.1)">
       <use xlink:href="#DejaVuSans-31"/>
       <use xlink:href="#DejaVuSans-37" x="63.623047"/>
       <use xlink:href="#DejaVuSans-35" x="127.246094"/>
      </g>
     </g>
    </g>
    <g id="xtick_9">
     <g id="line2d_17">
      <path d="M 820.289206 379.437127 
L 820.289206 25.44 
" clip-path="url(#p48e71de185)" style="fill: none; stroke: #b0b0b0; stroke-width: 0.8; stroke-linecap: square"/>
     </g>
     <g id="line2d_18">
      <g>
       <use xlink:href="#mdc52dcfa62" x="820.289206" y="379.437127" style="stroke: #000000; stroke-width: 0.8"/>
      </g>
     </g>
     <g id="text_9">
      <!-- 200 -->
      <g transform="translate(815.491928 405.306934) rotate(-45) scale(0.1 -0.1)">
       <use xlink:href="#DejaVuSans-32"/>
       <use xlink:href="#DejaVuSans-30" x="63.623047"/>
       <use xlink:href="#DejaVuSans-30" x="127.246094"/>
      </g>
     </g>
    </g>
    <g id="text_10">
     <!-- Seconds -->
     <g transform="translate(429.497969 418.375933) scale(0.1 -0.1)">
      <defs>
       <path id="DejaVuSans-53" d="M 3425 4513 
L 3425 3897 
Q 3066 4069 2747 4153 
Q 2428 4238 2131 4238 
Q 1616 4238 1336 4038 
Q 1056 3838 1056 3469 
Q 1056 3159 1242 3001 
Q 1428 2844 1947 2747 
L 2328 2669 
Q 3034 2534 3370 2195 
Q 3706 1856 3706 1288 
Q 3706 609 3251 259 
Q 2797 -91 1919 -91 
Q 1588 -91 1214 -16 
Q 841 59 441 206 
L 441 856 
Q 825 641 1194 531 
Q 1563 422 1919 422 
Q 2459 422 2753 634 
Q 3047 847 3047 1241 
Q 3047 1584 2836 1778 
Q 2625 1972 2144 2069 
L 1759 2144 
Q 1053 2284 737 2584 
Q 422 2884 422 3419 
Q 422 4038 858 4394 
Q 1294 4750 2059 4750 
Q 2388 4750 2728 4690 
Q 3069 4631 3425 4513 
z
" transform="scale(0.015625)"/>
       <path id="DejaVuSans-65" d="M 3597 1894 
L 3597 1613 
L 953 1613 
Q 991 1019 1311 708 
Q 1631 397 2203 397 
Q 2534 397 2845 478 
Q 3156 559 3463 722 
L 3463 178 
Q 3153 47 2828 -22 
Q 2503 -91 2169 -91 
Q 1331 -91 842 396 
Q 353 884 353 1716 
Q 353 2575 817 3079 
Q 1281 3584 2069 3584 
Q 2775 3584 3186 3129 
Q 3597 2675 3597 1894 
z
M 3022 2063 
Q 3016 2534 2758 2815 
Q 2500 3097 2075 3097 
Q 1594 3097 1305 2825 
Q 1016 2553 972 2059 
L 3022 2063 
z
" transform="scale(0.015625)"/>
       <path id="DejaVuSans-63" d="M 3122 3366 
L 3122 2828 
Q 2878 2963 2633 3030 
Q 2388 3097 2138 3097 
Q 1578 3097 1268 2742 
Q 959 2388 959 1747 
Q 959 1106 1268 751 
Q 1578 397 2138 397 
Q 2388 397 2633 464 
Q 2878 531 3122 666 
L 3122 134 
Q 2881 22 2623 -34 
Q 2366 -91 2075 -91 
Q 1284 -91 818 406 
Q 353 903 353 1747 
Q 353 2603 823 3093 
Q 1294 3584 2113 3584 
Q 2378 3584 2631 3529 
Q 2884 3475 3122 3366 
z
" transform="scale(0.015625)"/>
       <path id="DejaVuSans-6f" d="M 1959 3097 
Q 1497 3097 1228 2736 
Q 959 2375 959 1747 
Q 959 1119 1226 758 
Q 1494 397 1959 397 
Q 2419 397 2687 759 
Q 2956 1122 2956 1747 
Q 2956 2369 2687 2733 
Q 2419 3097 1959 3097 
z
M 1959 3584 
Q 2709 3584 3137 3096 
Q 3566 2609 3566 1747 
Q 3566 888 3137 398 
Q 2709 -91 1959 -91 
Q 1206 -91 779 398 
Q 353 888 353 1747 
Q 353 2609 779 3096 
Q 1206 3584 1959 3584 
z
" transform="scale(0.015625)"/>
       <path id="DejaVuSans-6e" d="M 3513 2113 
L 3513 0 
L 2938 0 
L 2938 2094 
Q 2938 2591 2744 2837 
Q 2550 3084 2163 3084 
Q 1697 3084 1428 2787 
Q 1159 2491 1159 1978 
L 1159 0 
L 581 0 
L 581 3500 
L 1159 3500 
L 1159 2956 
Q 1366 3272 1645 3428 
Q 1925 3584 2291 3584 
Q 2894 3584 3203 3211 
Q 3513 2838 3513 2113 
z
" transform="scale(0.015625)"/>
       <path id="DejaVuSans-64" d="M 2906 2969 
L 2906 4863 
L 3481 4863 
L 3481 0 
L 2906 0 
L 2906 525 
Q 2725 213 2448 61 
Q 2172 -91 1784 -91 
Q 1150 -91 751 415 
Q 353 922 353 1747 
Q 353 2572 751 3078 
Q 1150 3584 1784 3584 
Q 2172 3584 2448 3432 
Q 2725 3281 2906 2969 
z
M 947 1747 
Q 947 1113 1208 752 
Q 1469 391 1925 391 
Q 2381 391 2643 752 
Q 2906 1113 2906 1747 
Q 2906 2381 2643 2742 
Q 2381 3103 1925 3103 
Q 1469 3103 1208 2742 
Q 947 2381 947 1747 
z
" transform="scale(0.015625)"/>
       <path id="DejaVuSans-73" d="M 2834 3397 
L 2834 2853 
Q 2591 2978 2328 3040 
Q 2066 3103 1784 3103 
Q 1356 3103 1142 2972 
Q 928 2841 928 2578 
Q 928 2378 1081 2264 
Q 1234 2150 1697 2047 
L 1894 2003 
Q 2506 1872 2764 1633 
Q 3022 1394 3022 966 
Q 3022 478 2636 193 
Q 2250 -91 1575 -91 
Q 1294 -91 989 -36 
Q 684 19 347 128 
L 347 722 
Q 666 556 975 473 
Q 1284 391 1588 391 
Q 1994 391 2212 530 
Q 2431 669 2431 922 
Q 2431 1156 2273 1281 
Q 2116 1406 1581 1522 
L 1381 1569 
Q 847 1681 609 1914 
Q 372 2147 372 2553 
Q 372 3047 722 3315 
Q 1072 3584 1716 3584 
Q 2034 3584 2315 3537 
Q 2597 3491 2834 3397 
z
" transform="scale(0.015625)"/>
      </defs>
      <use xlink:href="#DejaVuSans-53"/>
      <use xlink:href="#DejaVuSans-65" x="63.476562"/>
      <use xlink:href="#DejaVuSans-63" x="125"/>
      <use xlink:href="#DejaVuSans-6f" x="179.980469"/>
      <use xlink:href="#DejaVuSans-6e" x="241.162109"/>
      <use xlink:href="#DejaVuSans-64" x="304.541016"/>
      <use xlink:href="#DejaVuSans-73" x="368.017578"/>
     </g>
    </g>
   </g>
   <g id="matplotlib.axis_2">
    <g id="ytick_1">
     <g id="line2d_19">
      <path d="M 47.81 309.78507 
L 853.2 309.78507 
" clip-path="url(#p48e71de185)" style="fill: none; stroke: #b0b0b0; stroke-width: 0.8; stroke-linecap: square"/>
     </g>
     <g id="line2d_20">
      <defs>
       <path id="m3ac41f9d05" d="M 0 0 
L -3.5 0 
" style="stroke: #000000; stroke-width: 0.8"/>
      </defs>
      <g>
       <use xlink:href="#m3ac41f9d05" x="47.81" y="309.78507" style="stroke: #000000; stroke-width: 0.8"/>
      </g>
     </g>
     <g id="text_11">
      <!-- 0.8 -->
      <g transform="translate(24.906875 313.584289) scale(0.1 -0.1)">
       <defs>
        <path id="DejaVuSans-2e" d="M 684 794 
L 1344 794 
L 1344 0 
L 684 0 
L 684 794 
z
" transform="scale(0.015625)"/>
        <path id="DejaVuSans-38" d="M 2034 2216 
Q 1584 2216 1326 1975 
Q 1069 1734 1069 1313 
Q 1069 891 1326 650 
Q 1584 409 2034 409 
Q 2484 409 2743 651 
Q 3003 894 3003 1313 
Q 3003 1734 2745 1975 
Q 2488 2216 2034 2216 
z
M 1403 2484 
Q 997 2584 770 2862 
Q 544 3141 544 3541 
Q 544 4100 942 4425 
Q 1341 4750 2034 4750 
Q 2731 4750 3128 4425 
Q 3525 4100 3525 3541 
Q 3525 3141 3298 2862 
Q 3072 2584 2669 2484 
Q 3125 2378 3379 2068 
Q 3634 1759 3634 1313 
Q 3634 634 3220 271 
Q 2806 -91 2034 -91 
Q 1263 -91 848 271 
Q 434 634 434 1313 
Q 434 1759 690 2068 
Q 947 2378 1403 2484 
z
M 1172 3481 
Q 1172 3119 1398 2916 
Q 1625 2713 2034 2713 
Q 2441 2713 2670 2916 
Q 2900 3119 2900 3481 
Q 2900 3844 2670 4047 
Q 2441 4250 2034 4250 
Q 1625 4250 1398 4047 
Q 1172 3844 1172 3481 
z
" transform="scale(0.015625)"/>
       </defs>
       <use xlink:href="#DejaVuSans-30"/>
       <use xlink:href="#DejaVuSans-2e" x="63.623047"/>
       <use xlink:href="#DejaVuSans-38" x="95.410156"/>
      </g>
     </g>
    </g>
    <g id="ytick_2">
     <g id="line2d_21">
      <path d="M 47.81 235.135204 
L 853.2 235.135204 
" clip-path="url(#p48e71de185)" style="fill: none; stroke: #b0b0b0; stroke-width: 0.8; stroke-linecap: square"/>
     </g>
     <g id="line2d_22">
      <g>
       <use xlink:href="#m3ac41f9d05" x="47.81" y="235.135204" style="stroke: #000000; stroke-width: 0.8"/>
      </g>
     </g>
     <g id="text_12">
      <!-- 1.0 -->
      <g transform="translate(24.906875 238.934423) scale(0.1 -0.1)">
       <use xlink:href="#DejaVuSans-31"/>
       <use xlink:href="#DejaVuSans-2e" x="63.623047"/>
       <use xlink:href="#DejaVuSans-30" x="95.410156"/>
      </g>
     </g>
    </g>
    <g id="ytick_3">
     <g id="line2d_23">
      <path d="M 47.81 160.485339 
L 853.2 160.485339 
" clip-path="url(#p48e71de185)" style="fill: none; stroke: #b0b0b0; stroke-width: 0.8; stroke-linecap: square"/>
     </g>
     <g id="line2d_24">
      <g>
       <use xlink:href="#m3ac41f9d05" x="47.81" y="160.485339" style="stroke: #000000; stroke-width: 0.8"/>
      </g>
     </g>
     <g id="text_13">
      <!-- 1.2 -->
      <g transform="translate(24.906875 164.284558) scale(0.1 -0.1)">
       <use xlink:href="#DejaVuSans-31"/>
       <use xlink:href="#DejaVuSans-2e" x="63.623047"/>
       <use xlink:href="#DejaVuSans-32" x="95.410156"/>
      </g>
     </g>
    </g>
    <g id="ytick_4">
     <g id="line2d_25">
      <path d="M 47.81 85.835474 
L 853.2 85.835474 
" clip-path="url(#p48e71de185)" style="fill: none; stroke: #b0b0b0; stroke-width: 0.8; stroke-linecap: square"/>
     </g>
     <g id="line2d_26">
      <g>
       <use xlink:href="#m3ac41f9d05" x="47.81" y="85.835474" style="stroke: #000000; stroke-width: 0.8"/>
      </g>
     </g>
     <g id="text_14">
      <!-- 1.4 -->
      <g transform="translate(24.906875 89.634692) scale(0.1 -0.1)">
       <defs>
        <path id="DejaVuSans-34" d="M 2419 4116 
L 825 1625 
L 2419 1625 
L 2419 4116 
z
M 2253 4666 
L 3047 4666 
L 3047 1625 
L 3713 1625 
L 3713 1100 
L 3047 1100 
L 3047 0 
L 2419 0 
L 2419 1100 
L 313 1100 
L 313 1709 
L 2253 4666 
z
" transform="scale(0.015625)"/>
       </defs>
       <use xlink:href="#DejaVuSans-31"/>
       <use xlink:href="#DejaVuSans-2e" x="63.623047"/>
       <use xlink:href="#DejaVuSans-34" x="95.410156"/>
      </g>
     </g>
    </g>
    <g id="text_15">
     <!-- Wattage [W] -->
     <g transform="translate(18.827187 233.797157) rotate(-90) scale(0.1 -0.1)">
      <defs>
       <path id="DejaVuSans-57" d="M 213 4666 
L 850 4666 
L 1831 722 
L 2809 4666 
L 3519 4666 
L 4500 722 
L 5478 4666 
L 6119 4666 
L 4947 0 
L 4153 0 
L 3169 4050 
L 2175 0 
L 1381 0 
L 213 4666 
z
" transform="scale(0.015625)"/>
       <path id="DejaVuSans-61" d="M 2194 1759 
Q 1497 1759 1228 1600 
Q 959 1441 959 1056 
Q 959 750 1161 570 
Q 1363 391 1709 391 
Q 2188 391 2477 730 
Q 2766 1069 2766 1631 
L 2766 1759 
L 2194 1759 
z
M 3341 1997 
L 3341 0 
L 2766 0 
L 2766 531 
Q 2569 213 2275 61 
Q 1981 -91 1556 -91 
Q 1019 -91 701 211 
Q 384 513 384 1019 
Q 384 1609 779 1909 
Q 1175 2209 1959 2209 
L 2766 2209 
L 2766 2266 
Q 2766 2663 2505 2880 
Q 2244 3097 1772 3097 
Q 1472 3097 1187 3025 
Q 903 2953 641 2809 
L 641 3341 
Q 956 3463 1253 3523 
Q 1550 3584 1831 3584 
Q 2591 3584 2966 3190 
Q 3341 2797 3341 1997 
z
" transform="scale(0.015625)"/>
       <path id="DejaVuSans-74" d="M 1172 4494 
L 1172 3500 
L 2356 3500 
L 2356 3053 
L 1172 3053 
L 1172 1153 
Q 1172 725 1289 603 
Q 1406 481 1766 481 
L 2356 481 
L 2356 0 
L 1766 0 
Q 1100 0 847 248 
Q 594 497 594 1153 
L 594 3053 
L 172 3053 
L 172 3500 
L 594 3500 
L 594 4494 
L 1172 4494 
z
" transform="scale(0.015625)"/>
       <path id="DejaVuSans-67" d="M 2906 1791 
Q 2906 2416 2648 2759 
Q 2391 3103 1925 3103 
Q 1463 3103 1205 2759 
Q 947 2416 947 1791 
Q 947 1169 1205 825 
Q 1463 481 1925 481 
Q 2391 481 2648 825 
Q 2906 1169 2906 1791 
z
M 3481 434 
Q 3481 -459 3084 -895 
Q 2688 -1331 1869 -1331 
Q 1566 -1331 1297 -1286 
Q 1028 -1241 775 -1147 
L 775 -588 
Q 1028 -725 1275 -790 
Q 1522 -856 1778 -856 
Q 2344 -856 2625 -561 
Q 2906 -266 2906 331 
L 2906 616 
Q 2728 306 2450 153 
Q 2172 0 1784 0 
Q 1141 0 747 490 
Q 353 981 353 1791 
Q 353 2603 747 3093 
Q 1141 3584 1784 3584 
Q 2172 3584 2450 3431 
Q 2728 3278 2906 2969 
L 2906 3500 
L 3481 3500 
L 3481 434 
z
" transform="scale(0.015625)"/>
       <path id="DejaVuSans-20" transform="scale(0.015625)"/>
       <path id="DejaVuSans-5b" d="M 550 4863 
L 1875 4863 
L 1875 4416 
L 1125 4416 
L 1125 -397 
L 1875 -397 
L 1875 -844 
L 550 -844 
L 550 4863 
z
" transform="scale(0.015625)"/>
       <path id="DejaVuSans-5d" d="M 1947 4863 
L 1947 -844 
L 622 -844 
L 622 -397 
L 1369 -397 
L 1369 4416 
L 622 4416 
L 622 4863 
L 1947 4863 
z
" transform="scale(0.015625)"/>
      </defs>
      <use xlink:href="#DejaVuSans-57"/>
      <use xlink:href="#DejaVuSans-61" x="92.501953"/>
      <use xlink:href="#DejaVuSans-74" x="153.78125"/>
      <use xlink:href="#DejaVuSans-74" x="192.990234"/>
      <use xlink:href="#DejaVuSans-61" x="232.199219"/>
      <use xlink:href="#DejaVuSans-67" x="293.478516"/>
      <use xlink:href="#DejaVuSans-65" x="356.955078"/>
      <use xlink:href="#DejaVuSans-20" x="418.478516"/>
      <use xlink:href="#DejaVuSans-5b" x="450.265625"/>
      <use xlink:href="#DejaVuSans-57" x="489.279297"/>
      <use xlink:href="#DejaVuSans-5d" x="588.15625"/>
     </g>
    </g>
   </g>
   <g id="line2d_27">
    <path d="M 84.418636 361.032202 
L 91.81432 360.994877 
L 95.512163 332.403979 
L 99.210005 257.604814 
L 102.907847 360.397678 
L 106.605689 363.010424 
L 117.699215 363.010424 
L 121.397057 363.346348 
L 125.094899 132.864889 
L 128.792741 132.976864 
L 132.490583 135.962858 
L 136.188425 135.962858 
L 139.886267 139.695351 
L 143.584109 139.695351 
L 147.281951 139.881976 
L 150.979793 147.123013 
L 154.677635 147.123013 
L 158.375478 164.292482 
L 162.07332 164.404457 
L 165.771162 135.104385 
L 169.469004 135.029735 
L 173.166846 140.068601 
L 176.864688 134.283236 
L 180.56253 134.283236 
L 184.260372 147.682887 
L 187.958214 147.682887 
L 191.656056 146.936388 
L 195.353898 146.936388 
L 199.05174 157.31272 
L 202.749582 134.91776 
L 206.447424 134.84311 
L 210.145266 135.029735 
L 213.843108 135.029735 
L 217.54095 148.61601 
L 221.238792 148.61601 
L 224.936635 148.242761 
L 228.634477 140.44185 
L 232.332319 141.561598 
L 236.030161 139.695351 
L 239.728003 139.695351 
L 243.425845 152.348504 
L 247.123687 152.348504 
L 250.821529 134.656486 
L 254.519371 134.656486 
L 258.217213 133.909987 
L 261.915055 144.883517 
L 265.612897 144.883517 
L 269.310739 162.426235 
L 273.008581 162.351586 
L 276.706423 136.410757 
L 280.404265 136.522732 
L 287.799949 137.64248 
L 291.497792 137.64248 
L 295.195634 143.01727 
L 298.893476 142.942621 
L 302.591318 149.287859 
L 306.28916 149.362509 
L 309.987002 131.857116 
L 313.684844 141.636248 
L 317.382686 141.748223 
L 321.080528 141.561598 
L 324.77837 141.561598 
L 328.476212 135.589609 
L 332.174054 135.589609 
L 335.871896 142.830646 
L 339.569738 142.830646 
L 343.26758 142.569371 
L 346.965422 131.558516 
L 350.663264 131.670491 
L 354.361107 142.270772 
L 358.058949 142.270772 
L 361.756791 141.934847 
L 365.454633 141.934847 
L 372.850317 135.589609 
L 376.548159 135.589609 
L 380.246001 147.682887 
L 383.943843 147.682887 
L 387.641685 154.401375 
L 391.339527 154.401375 
L 395.037369 139.695351 
L 398.735211 145.81664 
L 402.433053 145.81664 
L 406.130895 141.188349 
L 409.828737 141.188349 
L 413.526579 145.81664 
L 417.224421 145.81664 
L 420.922264 134.84311 
L 424.620106 134.84311 
L 428.317948 151.228756 
L 432.01579 139.695351 
L 435.713632 139.695351 
L 439.411474 138.948853 
L 443.109316 138.948853 
L 446.807158 142.084147 
L 450.505 142.084147 
L 454.202842 151.042131 
L 457.900684 147.123013 
L 461.598526 147.123013 
L 465.296368 147.682887 
L 468.99421 147.682887 
L 472.692052 131.857116 
L 476.389894 131.857116 
L 480.087736 140.068601 
L 483.785579 136.336108 
L 487.483421 135.962858 
L 491.181263 145.256766 
L 494.879105 145.256766 
L 498.576947 146.003265 
L 502.274789 146.003265 
L 505.972631 152.908378 
L 509.670473 152.908378 
L 513.368315 136.522732 
L 517.066157 160.559989 
L 520.763999 160.559989 
L 524.461841 140.815099 
L 528.159683 140.815099 
L 531.857525 146.18989 
L 535.555367 146.18989 
L 539.253209 145.443391 
L 542.951051 158.507118 
L 546.648893 158.507118 
L 550.346736 141.561598 
L 554.044578 141.561598 
L 557.74242 137.082606 
L 561.440262 137.082606 
L 565.138104 145.443391 
L 568.835946 145.070142 
L 572.533788 144.995492 
L 576.23163 139.956626 
L 579.929472 140.068601 
L 583.627314 165.038981 
L 587.325156 165.038981 
L 591.022998 135.776234 
L 594.72084 135.776234 
L 598.418682 135.402984 
L 602.116524 158.693742 
L 605.814366 158.693742 
L 609.512208 129.804244 
L 613.210051 129.804244 
L 616.907893 152.721753 
L 620.605735 152.721753 
L 624.303577 149.735758 
L 628.001419 130.923992 
L 631.699261 130.923992 
L 635.397103 131.110617 
L 639.094945 131.110617 
L 642.792787 134.096612 
L 646.490629 134.096612 
L 650.188471 143.01727 
L 653.886313 143.31587 
L 657.584155 143.31587 
L 661.281997 125.959776 
L 664.979839 125.959776 
L 668.677681 137.530505 
L 672.375523 137.64248 
L 676.073365 134.84311 
L 679.771208 134.84311 
L 683.46905 149.474484 
L 687.166892 143.129245 
L 690.864734 143.203895 
L 694.562576 151.975254 
L 698.260418 151.900604 
L 701.95826 186.612792 
L 705.656102 186.687442 
L 709.353944 151.41538 
L 713.051786 142.830646 
L 716.749628 142.830646 
L 720.44747 138.762228 
L 724.145312 138.762228 
L 727.843154 146.936388 
L 731.540996 146.936388 
L 735.238838 150.482257 
L 738.93668 165.038981 
L 742.634522 165.038981 
L 746.332365 157.947244 
L 750.030207 157.947244 
L 753.728049 143.01727 
L 757.425891 143.01727 
L 761.123733 138.762228 
L 764.821575 138.762228 
L 768.519417 139.508727 
L 772.217259 146.18989 
L 775.915101 146.18989 
L 779.612943 130.550743 
L 783.310785 130.550743 
L 787.008627 160.000115 
L 790.706469 160.000115 
L 794.404311 140.703125 
L 798.102153 135.664259 
L 801.799995 135.589609 
L 805.497837 142.830646 
L 809.19568 142.830646 
L 812.893522 147.123013 
L 816.591364 147.123013 
L 816.591364 147.123013 
" clip-path="url(#p48e71de185)" style="fill: none; stroke: #1f77b4; stroke-opacity: 0.3; stroke-width: 1.5; stroke-linecap: square"/>
   </g>
   <g id="line2d_28">
    <path d="M 84.418636 141.822873 
L 88.116478 141.822873 
L 91.81432 145.182117 
L 95.512163 145.256766 
L 99.210005 145.443391 
L 102.907847 145.443391 
L 106.605689 204.416785 
L 110.303531 204.416785 
L 114.001373 138.948853 
L 117.699215 133.909987 
L 121.397057 133.909987 
L 125.094899 139.695351 
L 128.792741 139.695351 
L 132.490583 41.530778 
L 136.188425 41.530778 
L 139.886267 133.163488 
L 143.584109 142.830646 
L 147.281951 142.830646 
L 150.979793 142.084147 
L 154.677635 142.084147 
L 158.375478 137.269231 
L 162.07332 137.269231 
L 165.771162 136.895982 
L 169.469004 127.452774 
L 173.166846 140.068601 
L 176.864688 149.735758 
L 180.56253 149.735758 
L 184.260372 162.799485 
L 187.958214 162.799485 
L 191.656056 139.695351 
L 195.353898 139.695351 
L 199.05174 135.589609 
L 202.749582 137.64248 
L 206.447424 137.64248 
L 210.145266 139.881976 
L 213.843108 139.770001 
L 217.54095 130.812017 
L 221.238792 130.923992 
L 224.936635 130.550743 
L 228.634477 145.630016 
L 232.332319 145.630016 
L 236.030161 131.670491 
L 239.728003 131.670491 
L 243.425845 124.01888 
L 247.123687 124.01888 
L 250.821529 145.81664 
L 254.519371 71.2041 
L 258.217213 135.962858 
L 261.915055 132.41699 
L 265.612897 132.41699 
L 269.310739 142.270772 
L 273.008581 142.270772 
L 276.706423 132.41699 
L 280.404265 132.41699 
L 284.102107 148.541361 
L 287.799949 143.502495 
L 291.497792 143.502495 
L 295.195634 153.020352 
L 298.893476 153.020352 
L 302.591318 126.51965 
L 306.28916 126.631625 
L 309.987002 139.135477 
L 313.684844 139.695351 
L 317.382686 139.695351 
L 321.080528 136.522732 
L 324.77837 136.522732 
L 328.476212 132.230365 
L 332.174054 132.230365 
L 335.871896 152.161879 
L 339.569738 151.900604 
L 343.26758 142.084147 
L 346.965422 142.270772 
L 350.663264 142.270772 
L 354.361107 127.378124 
L 358.058949 127.378124 
L 361.756791 173.437091 
L 365.454633 173.437091 
L 369.152475 144.510268 
L 372.850317 146.376514 
L 376.548159 146.04059 
L 380.246001 130.700043 
L 383.943843 131.110617 
L 387.641685 143.203895 
L 391.339527 143.203895 
L 395.037369 125.138628 
L 398.735211 140.44185 
L 402.433053 140.44185 
L 406.130895 143.577144 
L 409.828737 143.577144 
L 413.526579 154.21475 
L 417.224421 154.21475 
L 420.922264 138.388979 
L 424.620106 67.471607 
L 428.317948 142.196122 
L 432.01579 158.245843 
L 435.713632 158.320493 
L 439.411474 139.695351 
L 443.109316 139.695351 
L 446.807158 148.056136 
L 450.505 148.056136 
L 454.202842 148.541361 
L 457.900684 145.368741 
L 461.598526 145.256766 
L 465.296368 140.44185 
L 468.99421 140.44185 
L 472.692052 136.709357 
L 476.389894 136.709357 
L 480.087736 132.41699 
L 483.785579 140.628475 
L 487.483421 140.628475 
L 491.181263 160.000115 
L 494.879105 159.925465 
L 498.576947 153.580226 
L 502.274789 153.654876 
L 505.972631 138.762228 
L 509.670473 132.939539 
L 513.368315 132.976864 
L 517.066157 142.830646 
L 520.763999 142.830646 
L 524.461841 148.61601 
L 528.159683 148.541361 
L 531.857525 148.354736 
L 535.555367 148.429386 
L 539.253209 133.536738 
L 542.951051 134.096612 
L 546.648893 134.096612 
L 550.346736 134.656486 
L 554.044578 134.656486 
L 557.74242 139.508727 
L 561.440262 139.396752 
L 565.138104 140.068601 
L 568.835946 196.578549 
L 572.533788 196.578549 
L 576.23163 132.976864 
L 579.929472 132.976864 
L 583.627314 138.762228 
L 587.325156 138.762228 
L 591.022998 145.630016 
L 594.72084 145.630016 
L 598.418682 142.270772 
L 602.116524 146.936388 
L 605.814366 146.861739 
L 609.512208 226.363845 
L 613.210051 226.438495 
L 616.907893 137.64248 
L 620.605735 137.530505 
L 624.303577 139.508727 
L 628.001419 140.068601 
L 631.699261 140.068601 
L 635.397103 130.550743 
L 639.094945 130.550743 
L 642.792787 156.267622 
L 646.490629 156.192972 
L 650.188471 200.684291 
L 653.886313 140.44185 
L 657.584155 140.329875 
L 661.281997 134.91776 
L 664.979839 135.029735 
L 668.677681 137.64248 
L 672.375523 137.64248 
L 676.073365 147.682887 
L 679.771208 143.875744 
L 683.46905 142.084147 
L 687.166892 209.269026 
L 690.864734 209.269026 
L 694.562576 139.695351 
L 698.260418 139.695351 
L 701.95826 142.270772 
L 705.656102 142.270772 
L 709.353944 139.135477 
L 713.051786 144.510268 
L 716.749628 144.510268 
L 720.44747 142.457396 
L 724.145312 142.457396 
L 727.843154 360.770928 
L 731.540996 360.770928 
L 735.238838 144.696892 
L 738.93668 136.336108 
L 742.634522 136.336108 
L 746.332365 135.589609 
L 750.030207 135.589609 
L 753.728049 137.64248 
L 757.425891 137.530505 
L 761.123733 146.11524 
L 764.821575 146.11524 
L 768.519417 206.842905 
L 772.217259 139.135477 
L 775.915101 139.023503 
L 779.612943 136.970631 
L 783.310785 136.970631 
L 787.008627 178.961181 
L 790.706469 179.035831 
L 794.404311 133.051513 
L 798.102153 152.833728 
L 801.799995 152.833728 
L 805.497837 155.446473 
L 809.19568 155.521123 
L 812.893522 138.948853 
L 816.591364 138.948853 
L 816.591364 138.948853 
" clip-path="url(#p48e71de185)" style="fill: none; stroke: #ff7f0e; stroke-opacity: 0.3; stroke-width: 1.5; stroke-linecap: square"/>
   </g>
   <g id="line2d_29">
    <path d="M 84.418636 132.603614 
L 99.210005 132.603614 
L 102.907847 137.64248 
L 106.605689 137.64248 
L 110.303531 152.833728 
L 114.001373 145.741991 
L 117.699215 145.741991 
L 121.397057 221.698229 
L 125.094899 221.772878 
L 128.792741 138.762228 
L 132.490583 138.762228 
L 136.188425 134.84311 
L 139.886267 78.855711 
L 143.584109 143.763769 
L 147.281951 145.81664 
L 150.979793 145.81664 
L 154.677635 149.362509 
L 158.375478 148.83996 
L 162.07332 127.154174 
L 165.771162 127.452774 
L 169.469004 141.561598 
L 173.166846 135.029735 
L 176.864688 135.029735 
L 180.56253 142.084147 
L 184.260372 142.084147 
L 187.958214 149.735758 
L 191.656056 149.661108 
L 195.353898 157.760619 
L 199.05174 141.374973 
L 202.749582 141.374973 
L 206.447424 143.950394 
L 210.145266 143.950394 
L 213.843108 136.522732 
L 217.54095 136.522732 
L 221.238792 139.135477 
L 224.936635 139.023503 
L 228.634477 148.242761 
L 232.332319 256.111817 
L 236.030161 256.186466 
L 239.728003 140.143251 
L 243.425845 140.068601 
L 247.123687 139.881976 
L 250.821529 139.881976 
L 254.519371 136.709357 
L 258.217213 140.628475 
L 261.915055 140.5165 
L 265.612897 145.555366 
L 269.310739 145.555366 
L 273.008581 127.639398 
L 276.706423 127.751373 
L 280.404265 136.336108 
L 284.102107 130.177494 
L 287.799949 130.177494 
L 291.497792 141.561598 
L 302.591318 141.561598 
L 306.28916 147.682887 
L 309.987002 147.794862 
L 313.684844 133.163488 
L 321.080528 133.163488 
L 324.77837 132.790239 
L 328.476212 132.790239 
L 332.174054 150.482257 
L 335.871896 150.407607 
L 339.569738 143.01727 
L 343.26758 125.325252 
L 346.965422 125.325252 
L 350.663264 149.549134 
L 354.361107 149.549134 
L 358.058949 142.270772 
L 361.756791 142.270772 
L 365.454633 138.762228 
L 369.152475 141.561598 
L 372.850317 141.449623 
L 376.548159 147.981487 
L 380.246001 147.981487 
L 383.943843 125.586527 
L 387.641685 125.698502 
L 391.339527 144.510268 
L 395.037369 144.510268 
L 398.735211 199.00467 
L 402.433053 138.015729 
L 406.130895 138.015729 
L 409.828737 143.203895 
L 413.526579 143.129245 
L 417.224421 154.1401 
L 420.922264 154.326725 
L 424.620106 133.909987 
L 428.317948 137.269231 
L 432.01579 137.269231 
L 435.713632 130.177494 
L 439.411474 130.177494 
L 443.109316 142.084147 
L 446.807158 142.009497 
L 450.505 142.569371 
L 454.202842 195.645426 
L 457.900684 195.645426 
L 461.598526 132.603614 
L 465.296368 132.603614 
L 468.99421 136.336108 
L 472.692052 136.336108 
L 476.389894 139.322102 
L 480.087736 138.948853 
L 483.785579 139.210127 
L 487.483421 152.087229 
L 491.181263 152.087229 
L 494.879105 150.034358 
L 498.576947 150.109008 
L 502.274789 143.01727 
L 505.972631 143.01727 
L 509.670473 129.804244 
L 513.368315 137.269231 
L 517.066157 137.269231 
L 520.763999 140.815099 
L 524.461841 140.815099 
L 528.159683 145.443391 
L 531.857525 145.107467 
L 535.555367 128.460547 
L 539.253209 143.689119 
L 542.951051 143.763769 
L 546.648893 143.39052 
L 550.346736 143.31587 
L 554.044578 141.262999 
L 557.74242 141.374973 
L 565.138104 141.374973 
L 568.835946 150.295632 
L 572.533788 135.962858 
L 576.23163 135.962858 
L 579.929472 138.948853 
L 583.627314 138.948853 
L 587.325156 136.336108 
L 591.022998 136.336108 
L 594.72084 136.522732 
L 598.418682 147.682887 
L 602.116524 147.608237 
L 605.814366 344.497257 
L 609.512208 344.534582 
L 613.210051 143.577144 
L 616.907893 143.502495 
L 620.605735 206.917555 
L 624.303577 131.110617 
L 628.001419 130.998642 
L 631.699261 139.583377 
L 635.397103 139.583377 
L 639.094945 145.741991 
L 642.792787 145.555366 
L 646.490629 132.305015 
L 650.188471 132.491639 
L 653.886313 139.695351 
L 657.584155 139.508727 
L 661.281997 139.508727 
L 664.979839 136.709357 
L 668.677681 136.709357 
L 672.375523 149.549134 
L 676.073365 149.474484 
L 679.771208 151.41538 
L 683.46905 133.536738 
L 687.166892 133.536738 
L 690.864734 133.163488 
L 694.562576 133.163488 
L 698.260418 138.388979 
L 701.95826 138.388979 
L 705.656102 141.748223 
L 709.353944 141.188349 
L 713.051786 141.076374 
L 716.749628 258.276663 
L 720.44747 258.351312 
L 724.145312 139.135477 
L 727.843154 139.135477 
L 731.540996 143.203895 
L 735.238838 143.203895 
L 738.93668 132.976864 
L 742.634522 140.628475 
L 746.332365 140.628475 
L 750.030207 145.256766 
L 753.728049 145.182117 
L 757.425891 123.906905 
L 761.123733 123.906905 
L 764.821575 138.388979 
L 768.519417 135.21636 
L 772.217259 135.21636 
L 775.915101 137.455856 
L 779.612943 137.455856 
L 783.310785 150.109008 
L 787.008627 150.034358 
L 790.706469 143.875744 
L 794.404311 136.672032 
L 798.102153 137.269231 
L 801.799995 139.135477 
L 805.497837 139.135477 
L 809.19568 129.990869 
L 812.893522 129.990869 
L 816.591364 196.018675 
L 816.591364 196.018675 
" clip-path="url(#p48e71de185)" style="fill: none; stroke: #2ca02c; stroke-opacity: 0.3; stroke-width: 1.5; stroke-linecap: square"/>
   </g>
   <g id="line2d_30">
    <path d="M 84.418636 211.819563 
L 88.116478 211.819563 
L 91.81432 212.926869 
L 95.512163 203.421453 
L 99.210005 178.550606 
L 102.907847 214.494517 
L 106.605689 235.02323 
L 110.303531 240.086979 
L 114.001373 215.900422 
L 117.699215 214.2208 
L 121.397057 239.651521 
L 125.094899 164.777706 
L 128.792741 137.144814 
L 132.490583 105.418622 
L 136.188425 104.112249 
L 139.886267 117.238184 
L 143.584109 142.096589 
L 147.281951 142.843087 
L 150.979793 145.007934 
L 154.677635 146.18989 
L 158.375478 150.133891 
L 162.07332 142.942621 
L 165.771162 133.151047 
L 169.469004 134.681369 
L 173.166846 138.388979 
L 176.864688 139.68291 
L 180.56253 142.034381 
L 184.260372 150.855506 
L 187.958214 153.406043 
L 191.656056 145.430949 
L 195.353898 148.130786 
L 199.05174 144.759101 
L 202.749582 137.978405 
L 210.145266 139.620702 
L 213.843108 137.107489 
L 217.54095 138.650253 
L 221.238792 139.558493 
L 224.936635 139.272336 
L 228.634477 144.771542 
L 232.332319 181.101143 
L 236.030161 175.85077 
L 239.728003 137.169698 
L 243.425845 138.811995 
L 247.123687 138.749787 
L 250.821529 140.118367 
L 254.519371 114.189981 
L 258.217213 136.833773 
L 261.915055 139.272336 
L 265.612897 140.951958 
L 269.310739 150.084124 
L 273.008581 144.087252 
L 276.706423 132.19304 
L 280.404265 135.091943 
L 284.102107 138.600487 
L 287.799949 137.107489 
L 291.497792 140.902191 
L 295.195634 145.866407 
L 298.893476 145.841524 
L 302.591318 139.123036 
L 306.28916 141.225674 
L 309.987002 139.595818 
L 313.684844 138.165029 
L 317.382686 138.202354 
L 321.080528 137.082606 
L 324.77837 136.95819 
L 328.476212 133.536738 
L 332.174054 139.434077 
L 335.871896 148.466711 
L 339.569738 145.916174 
L 343.26758 136.65959 
L 346.965422 133.051513 
L 350.663264 141.163465 
L 354.361107 139.732676 
L 358.058949 137.306556 
L 361.756791 152.54757 
L 365.454633 151.378055 
L 369.152475 141.611365 
L 372.850317 141.138582 
L 376.548159 143.203895 
L 380.246001 142.121472 
L 383.943843 134.793344 
L 391.339527 147.371846 
L 395.037369 136.448082 
L 398.735211 161.754387 
L 402.433053 141.42474 
L 406.130895 140.927074 
L 409.828737 142.656463 
L 413.526579 147.720212 
L 417.224421 151.390497 
L 420.922264 142.519605 
L 424.620106 112.074901 
L 428.317948 143.564703 
L 432.01579 145.070142 
L 435.713632 142.731113 
L 439.411474 136.273899 
L 446.807158 144.049927 
L 450.505 144.236552 
L 454.202842 165.076306 
L 457.900684 162.712393 
L 461.598526 141.661131 
L 465.296368 140.242784 
L 468.99421 141.486948 
L 472.692052 134.967527 
L 476.389894 135.962858 
L 480.087736 137.144814 
L 483.785579 138.724903 
L 487.483421 142.892854 
L 491.181263 152.448037 
L 494.879105 151.738863 
L 498.576947 149.8975 
L 502.274789 147.558471 
L 505.972631 144.895959 
L 509.670473 138.55072 
L 513.368315 135.589609 
L 517.066157 146.886622 
L 520.763999 148.068578 
L 524.461841 143.415403 
L 531.857525 146.550697 
L 535.555367 141.026607 
L 539.253209 140.889749 
L 542.951051 145.455833 
L 546.648893 145.331416 
L 550.346736 139.844651 
L 554.044578 139.160361 
L 557.74242 139.322102 
L 561.440262 139.284777 
L 565.138104 142.295655 
L 568.835946 163.981441 
L 572.533788 159.178966 
L 576.23163 136.298783 
L 579.929472 137.331439 
L 583.627314 147.583354 
L 587.325156 146.712439 
L 591.022998 139.247452 
L 594.72084 139.30966 
L 598.418682 141.785548 
L 602.116524 151.079456 
L 605.814366 216.684246 
L 609.512208 233.567557 
L 613.210051 166.606628 
L 616.907893 144.622243 
L 620.605735 165.723271 
L 624.303577 140.118367 
L 628.001419 133.997078 
L 631.699261 136.858657 
L 635.397103 133.748246 
L 639.094945 135.801117 
L 642.792787 145.306533 
L 646.490629 140.864866 
L 650.188471 158.731067 
L 653.886313 141.151024 
L 657.584155 141.051491 
L 661.281997 133.462088 
L 664.979839 132.566289 
L 668.677681 137.294114 
L 672.375523 141.611365 
L 676.073365 144.00016 
L 679.771208 143.378078 
L 683.46905 141.698456 
L 687.166892 161.978336 
L 690.864734 161.878803 
L 694.562576 141.611365 
L 698.260418 143.328312 
L 701.95826 155.757514 
L 705.656102 156.902145 
L 709.353944 143.913069 
L 713.051786 142.805763 
L 716.749628 181.872525 
L 720.44747 179.856979 
L 724.145312 140.118367 
L 727.843154 215.614265 
L 731.540996 216.970404 
L 735.238838 146.127682 
L 738.93668 144.783984 
L 742.634522 147.334521 
L 746.332365 144.721776 
L 750.030207 146.26454 
L 753.728049 141.947289 
L 757.425891 134.818227 
L 761.123733 136.261458 
L 764.821575 141.088816 
L 768.519417 160.522664 
L 772.217259 140.180576 
L 775.915101 140.889749 
L 779.612943 134.99241 
L 783.310785 139.210127 
L 787.008627 162.998551 
L 790.706469 160.970563 
L 794.404311 136.80889 
L 798.102153 141.922406 
L 801.799995 142.519605 
L 805.497837 145.804199 
L 809.19568 142.780879 
L 812.893522 138.687578 
L 816.591364 160.696847 
L 816.591364 160.696847 
" clip-path="url(#p48e71de185)" style="fill: none; stroke: #0000ff; stroke-width: 2; stroke-linecap: square"/>
   </g>
   <g id="line2d_31">
    <path d="M 47.81 148.940806 
L 853.2 148.940806 
" clip-path="url(#p48e71de185)" style="fill: none; stroke-dasharray: 7.4,3.2; stroke-dashoffset: 0; stroke: #ff0000; stroke-width: 2"/>
   </g>
   <g id="patch_3">
    <path d="M 47.81 379.437127 
L 47.81 25.44 
" style="fill: none; stroke: #000000; stroke-width: 0.8; stroke-linejoin: miter; stroke-linecap: square"/>
   </g>
   <g id="patch_4">
    <path d="M 853.2 379.437127 
L 853.2 25.44 
" style="fill: none; stroke: #000000; stroke-width: 0.8; stroke-linejoin: miter; stroke-linecap: square"/>
   </g>
   <g id="patch_5">
    <path d="M 47.81 379.437127 
L 853.2 379.437127 
" style="fill: none; stroke: #000000; stroke-width: 0.8; stroke-linejoin: miter; stroke-linecap: square"/>
   </g>
   <g id="patch_6">
    <path d="M 47.81 25.44 
L 853.2 25.44 
" style="fill: none; stroke: #000000; stroke-width: 0.8; stroke-linejoin: miter; stroke-linecap: square"/>
   </g>
   <g id="text_16">
    <!-- ESP32 power consumption while uploading -->
    <g transform="translate(321.1825 19.44) scale(0.12 -0.12)">
     <defs>
      <path id="DejaVuSans-45" d="M 628 4666 
L 3578 4666 
L 3578 4134 
L 1259 4134 
L 1259 2753 
L 3481 2753 
L 3481 2222 
L 1259 2222 
L 1259 531 
L 3634 531 
L 3634 0 
L 628 0 
L 628 4666 
z
" transform="scale(0.015625)"/>
      <path id="DejaVuSans-50" d="M 1259 4147 
L 1259 2394 
L 2053 2394 
Q 2494 2394 2734 2622 
Q 2975 2850 2975 3272 
Q 2975 3691 2734 3919 
Q 2494 4147 2053 4147 
L 1259 4147 
z
M 628 4666 
L 2053 4666 
Q 2838 4666 3239 4311 
Q 3641 3956 3641 3272 
Q 3641 2581 3239 2228 
Q 2838 1875 2053 1875 
L 1259 1875 
L 1259 0 
L 628 0 
L 628 4666 
z
" transform="scale(0.015625)"/>
      <path id="DejaVuSans-33" d="M 2597 2516 
Q 3050 2419 3304 2112 
Q 3559 1806 3559 1356 
Q 3559 666 3084 287 
Q 2609 -91 1734 -91 
Q 1441 -91 1130 -33 
Q 819 25 488 141 
L 488 750 
Q 750 597 1062 519 
Q 1375 441 1716 441 
Q 2309 441 2620 675 
Q 2931 909 2931 1356 
Q 2931 1769 2642 2001 
Q 2353 2234 1838 2234 
L 1294 2234 
L 1294 2753 
L 1863 2753 
Q 2328 2753 2575 2939 
Q 2822 3125 2822 3475 
Q 2822 3834 2567 4026 
Q 2313 4219 1838 4219 
Q 1578 4219 1281 4162 
Q 984 4106 628 3988 
L 628 4550 
Q 988 4650 1302 4700 
Q 1616 4750 1894 4750 
Q 2613 4750 3031 4423 
Q 3450 4097 3450 3541 
Q 3450 3153 3228 2886 
Q 3006 2619 2597 2516 
z
" transform="scale(0.015625)"/>
      <path id="DejaVuSans-70" d="M 1159 525 
L 1159 -1331 
L 581 -1331 
L 581 3500 
L 1159 3500 
L 1159 2969 
Q 1341 3281 1617 3432 
Q 1894 3584 2278 3584 
Q 2916 3584 3314 3078 
Q 3713 2572 3713 1747 
Q 3713 922 3314 415 
Q 2916 -91 2278 -91 
Q 1894 -91 1617 61 
Q 1341 213 1159 525 
z
M 3116 1747 
Q 3116 2381 2855 2742 
Q 2594 3103 2138 3103 
Q 1681 3103 1420 2742 
Q 1159 2381 1159 1747 
Q 1159 1113 1420 752 
Q 1681 391 2138 391 
Q 2594 391 2855 752 
Q 3116 1113 3116 1747 
z
" transform="scale(0.015625)"/>
      <path id="DejaVuSans-77" d="M 269 3500 
L 844 3500 
L 1563 769 
L 2278 3500 
L 2956 3500 
L 3675 769 
L 4391 3500 
L 4966 3500 
L 4050 0 
L 3372 0 
L 2619 2869 
L 1863 0 
L 1184 0 
L 269 3500 
z
" transform="scale(0.015625)"/>
      <path id="DejaVuSans-72" d="M 2631 2963 
Q 2534 3019 2420 3045 
Q 2306 3072 2169 3072 
Q 1681 3072 1420 2755 
Q 1159 2438 1159 1844 
L 1159 0 
L 581 0 
L 581 3500 
L 1159 3500 
L 1159 2956 
Q 1341 3275 1631 3429 
Q 1922 3584 2338 3584 
Q 2397 3584 2469 3576 
Q 2541 3569 2628 3553 
L 2631 2963 
z
" transform="scale(0.015625)"/>
      <path id="DejaVuSans-75" d="M 544 1381 
L 544 3500 
L 1119 3500 
L 1119 1403 
Q 1119 906 1312 657 
Q 1506 409 1894 409 
Q 2359 409 2629 706 
Q 2900 1003 2900 1516 
L 2900 3500 
L 3475 3500 
L 3475 0 
L 2900 0 
L 2900 538 
Q 2691 219 2414 64 
Q 2138 -91 1772 -91 
Q 1169 -91 856 284 
Q 544 659 544 1381 
z
M 1991 3584 
L 1991 3584 
z
" transform="scale(0.015625)"/>
      <path id="DejaVuSans-6d" d="M 3328 2828 
Q 3544 3216 3844 3400 
Q 4144 3584 4550 3584 
Q 5097 3584 5394 3201 
Q 5691 2819 5691 2113 
L 5691 0 
L 5113 0 
L 5113 2094 
Q 5113 2597 4934 2840 
Q 4756 3084 4391 3084 
Q 3944 3084 3684 2787 
Q 3425 2491 3425 1978 
L 3425 0 
L 2847 0 
L 2847 2094 
Q 2847 2600 2669 2842 
Q 2491 3084 2119 3084 
Q 1678 3084 1418 2786 
Q 1159 2488 1159 1978 
L 1159 0 
L 581 0 
L 581 3500 
L 1159 3500 
L 1159 2956 
Q 1356 3278 1631 3431 
Q 1906 3584 2284 3584 
Q 2666 3584 2933 3390 
Q 3200 3197 3328 2828 
z
" transform="scale(0.015625)"/>
      <path id="DejaVuSans-69" d="M 603 3500 
L 1178 3500 
L 1178 0 
L 603 0 
L 603 3500 
z
M 603 4863 
L 1178 4863 
L 1178 4134 
L 603 4134 
L 603 4863 
z
" transform="scale(0.015625)"/>
      <path id="DejaVuSans-68" d="M 3513 2113 
L 3513 0 
L 2938 0 
L 2938 2094 
Q 2938 2591 2744 2837 
Q 2550 3084 2163 3084 
Q 1697 3084 1428 2787 
Q 1159 2491 1159 1978 
L 1159 0 
L 581 0 
L 581 4863 
L 1159 4863 
L 1159 2956 
Q 1366 3272 1645 3428 
Q 1925 3584 2291 3584 
Q 2894 3584 3203 3211 
Q 3513 2838 3513 2113 
z
" transform="scale(0.015625)"/>
      <path id="DejaVuSans-6c" d="M 603 4863 
L 1178 4863 
L 1178 0 
L 603 0 
L 603 4863 
z
" transform="scale(0.015625)"/>
     </defs>
     <use xlink:href="#DejaVuSans-45"/>
     <use xlink:href="#DejaVuSans-53" x="63.183594"/>
     <use xlink:href="#DejaVuSans-50" x="126.660156"/>
     <use xlink:href="#DejaVuSans-33" x="186.962891"/>
     <use xlink:href="#DejaVuSans-32" x="250.585938"/>
     <use xlink:href="#DejaVuSans-20" x="314.208984"/>
     <use xlink:href="#DejaVuSans-70" x="345.996094"/>
     <use xlink:href="#DejaVuSans-6f" x="409.472656"/>
     <use xlink:href="#DejaVuSans-77" x="470.654297"/>
     <use xlink:href="#DejaVuSans-65" x="552.441406"/>
     <use xlink:href="#DejaVuSans-72" x="613.964844"/>
     <use xlink:href="#DejaVuSans-20" x="655.078125"/>
     <use xlink:href="#DejaVuSans-63" x="686.865234"/>
     <use xlink:href="#DejaVuSans-6f" x="741.845703"/>
     <use xlink:href="#DejaVuSans-6e" x="803.027344"/>
     <use xlink:href="#DejaVuSans-73" x="866.40625"/>
     <use xlink:href="#DejaVuSans-75" x="918.505859"/>
     <use xlink:href="#DejaVuSans-6d" x="981.884766"/>
     <use xlink:href="#DejaVuSans-70" x="1079.296875"/>
     <use xlink:href="#DejaVuSans-74" x="1142.773438"/>
     <use xlink:href="#DejaVuSans-69" x="1181.982422"/>
     <use xlink:href="#DejaVuSans-6f" x="1209.765625"/>
     <use xlink:href="#DejaVuSans-6e" x="1270.947266"/>
     <use xlink:href="#DejaVuSans-20" x="1334.326172"/>
     <use xlink:href="#DejaVuSans-77" x="1366.113281"/>
     <use xlink:href="#DejaVuSans-68" x="1447.900391"/>
     <use xlink:href="#DejaVuSans-69" x="1511.279297"/>
     <use xlink:href="#DejaVuSans-6c" x="1539.0625"/>
     <use xlink:href="#DejaVuSans-65" x="1566.845703"/>
     <use xlink:href="#DejaVuSans-20" x="1628.369141"/>
     <use xlink:href="#DejaVuSans-75" x="1660.15625"/>
     <use xlink:href="#DejaVuSans-70" x="1723.535156"/>
     <use xlink:href="#DejaVuSans-6c" x="1787.011719"/>
     <use xlink:href="#DejaVuSans-6f" x="1814.794922"/>
     <use xlink:href="#DejaVuSans-61" x="1875.976562"/>
     <use xlink:href="#DejaVuSans-64" x="1937.255859"/>
     <use xlink:href="#DejaVuSans-69" x="2000.732422"/>
     <use xlink:href="#DejaVuSans-6e" x="2028.515625"/>
     <use xlink:href="#DejaVuSans-67" x="2091.894531"/>
    </g>
   </g>
   <g id="legend_1">
    <g id="patch_7">
     <path d="M 697.215625 106.830625 
L 846.2 106.830625 
Q 848.2 106.830625 848.2 104.830625 
L 848.2 32.44 
Q 848.2 30.44 846.2 30.44 
L 697.215625 30.44 
Q 695.215625 30.44 695.215625 32.44 
L 695.215625 104.830625 
Q 695.215625 106.830625 697.215625 106.830625 
z
" style="fill: #ffffff; opacity: 0.8; stroke: #cccccc; stroke-linejoin: miter"/>
    </g>
    <g id="line2d_32">
     <path d="M 699.215625 38.538437 
L 709.215625 38.538437 
L 719.215625 38.538437 
" style="fill: none; stroke: #1f77b4; stroke-opacity: 0.3; stroke-width: 1.5; stroke-linecap: square"/>
    </g>
    <g id="text_17">
     <!-- Set 1 -->
     <g transform="translate(727.215625 42.038437) scale(0.1 -0.1)">
      <use xlink:href="#DejaVuSans-53"/>
      <use xlink:href="#DejaVuSans-65" x="63.476562"/>
      <use xlink:href="#DejaVuSans-74" x="125"/>
      <use xlink:href="#DejaVuSans-20" x="164.208984"/>
      <use xlink:href="#DejaVuSans-31" x="195.996094"/>
     </g>
    </g>
    <g id="line2d_33">
     <path d="M 699.215625 53.216563 
L 709.215625 53.216563 
L 719.215625 53.216563 
" style="fill: none; stroke: #ff7f0e; stroke-opacity: 0.3; stroke-width: 1.5; stroke-linecap: square"/>
    </g>
    <g id="text_18">
     <!-- Set 2 -->
     <g transform="translate(727.215625 56.716563) scale(0.1 -0.1)">
      <use xlink:href="#DejaVuSans-53"/>
      <use xlink:href="#DejaVuSans-65" x="63.476562"/>
      <use xlink:href="#DejaVuSans-74" x="125"/>
      <use xlink:href="#DejaVuSans-20" x="164.208984"/>
      <use xlink:href="#DejaVuSans-32" x="195.996094"/>
     </g>
    </g>
    <g id="line2d_34">
     <path d="M 699.215625 67.894687 
L 709.215625 67.894687 
L 719.215625 67.894687 
" style="fill: none; stroke: #2ca02c; stroke-opacity: 0.3; stroke-width: 1.5; stroke-linecap: square"/>
    </g>
    <g id="text_19">
     <!-- Set 3 -->
     <g transform="translate(727.215625 71.394687) scale(0.1 -0.1)">
      <use xlink:href="#DejaVuSans-53"/>
      <use xlink:href="#DejaVuSans-65" x="63.476562"/>
      <use xlink:href="#DejaVuSans-74" x="125"/>
      <use xlink:href="#DejaVuSans-20" x="164.208984"/>
      <use xlink:href="#DejaVuSans-33" x="195.996094"/>
     </g>
    </g>
    <g id="line2d_35">
     <path d="M 699.215625 82.572812 
L 709.215625 82.572812 
L 719.215625 82.572812 
" style="fill: none; stroke: #0000ff; stroke-width: 2; stroke-linecap: square"/>
    </g>
    <g id="text_20">
     <!-- Temporal Average -->
     <g transform="translate(727.215625 86.072812) scale(0.1 -0.1)">
      <defs>
       <path id="DejaVuSans-54" d="M -19 4666 
L 3928 4666 
L 3928 4134 
L 2272 4134 
L 2272 0 
L 1638 0 
L 1638 4134 
L -19 4134 
L -19 4666 
z
" transform="scale(0.015625)"/>
       <path id="DejaVuSans-41" d="M 2188 4044 
L 1331 1722 
L 3047 1722 
L 2188 4044 
z
M 1831 4666 
L 2547 4666 
L 4325 0 
L 3669 0 
L 3244 1197 
L 1141 1197 
L 716 0 
L 50 0 
L 1831 4666 
z
" transform="scale(0.015625)"/>
       <path id="DejaVuSans-76" d="M 191 3500 
L 800 3500 
L 1894 563 
L 2988 3500 
L 3597 3500 
L 2284 0 
L 1503 0 
L 191 3500 
z
" transform="scale(0.015625)"/>
      </defs>
      <use xlink:href="#DejaVuSans-54"/>
      <use xlink:href="#DejaVuSans-65" x="44.083984"/>
      <use xlink:href="#DejaVuSans-6d" x="105.607422"/>
      <use xlink:href="#DejaVuSans-70" x="203.019531"/>
      <use xlink:href="#DejaVuSans-6f" x="266.496094"/>
      <use xlink:href="#DejaVuSans-72" x="327.677734"/>
      <use xlink:href="#DejaVuSans-61" x="368.791016"/>
      <use xlink:href="#DejaVuSans-6c" x="430.070312"/>
      <use xlink:href="#DejaVuSans-20" x="457.853516"/>
      <use xlink:href="#DejaVuSans-41" x="489.640625"/>
      <use xlink:href="#DejaVuSans-76" x="552.173828"/>
      <use xlink:href="#DejaVuSans-65" x="611.353516"/>
      <use xlink:href="#DejaVuSans-72" x="672.876953"/>
      <use xlink:href="#DejaVuSans-61" x="713.990234"/>
      <use xlink:href="#DejaVuSans-67" x="775.269531"/>
      <use xlink:href="#DejaVuSans-65" x="838.746094"/>
     </g>
    </g>
    <g id="line2d_36">
     <path d="M 699.215625 97.250937 
L 709.215625 97.250937 
L 719.215625 97.250937 
" style="fill: none; stroke-dasharray: 7.4,3.2; stroke-dashoffset: 0; stroke: #ff0000; stroke-width: 2"/>
    </g>
    <g id="text_21">
     <!-- Overall Average = 1.23 -->
     <g transform="translate(727.215625 100.750937) scale(0.1 -0.1)">
      <defs>
       <path id="DejaVuSans-4f" d="M 2522 4238 
Q 1834 4238 1429 3725 
Q 1025 3213 1025 2328 
Q 1025 1447 1429 934 
Q 1834 422 2522 422 
Q 3209 422 3611 934 
Q 4013 1447 4013 2328 
Q 4013 3213 3611 3725 
Q 3209 4238 2522 4238 
z
M 2522 4750 
Q 3503 4750 4090 4092 
Q 4678 3434 4678 2328 
Q 4678 1225 4090 567 
Q 3503 -91 2522 -91 
Q 1538 -91 948 565 
Q 359 1222 359 2328 
Q 359 3434 948 4092 
Q 1538 4750 2522 4750 
z
" transform="scale(0.015625)"/>
       <path id="DejaVuSans-3d" d="M 678 2906 
L 4684 2906 
L 4684 2381 
L 678 2381 
L 678 2906 
z
M 678 1631 
L 4684 1631 
L 4684 1100 
L 678 1100 
L 678 1631 
z
" transform="scale(0.015625)"/>
      </defs>
      <use xlink:href="#DejaVuSans-4f"/>
      <use xlink:href="#DejaVuSans-76" x="78.710938"/>
      <use xlink:href="#DejaVuSans-65" x="137.890625"/>
      <use xlink:href="#DejaVuSans-72" x="199.414062"/>
      <use xlink:href="#DejaVuSans-61" x="240.527344"/>
      <use xlink:href="#DejaVuSans-6c" x="301.806641"/>
      <use xlink:href="#DejaVuSans-6c" x="329.589844"/>
      <use xlink:href="#DejaVuSans-20" x="357.373047"/>
      <use xlink:href="#DejaVuSans-41" x="389.160156"/>
      <use xlink:href="#DejaVuSans-76" x="451.693359"/>
      <use xlink:href="#DejaVuSans-65" x="510.873047"/>
      <use xlink:href="#DejaVuSans-72" x="572.396484"/>
      <use xlink:href="#DejaVuSans-61" x="613.509766"/>
      <use xlink:href="#DejaVuSans-67" x="674.789062"/>
      <use xlink:href="#DejaVuSans-65" x="738.265625"/>
      <use xlink:href="#DejaVuSans-20" x="799.789062"/>
      <use xlink:href="#DejaVuSans-3d" x="831.576172"/>
      <use xlink:href="#DejaVuSans-20" x="915.365234"/>
      <use xlink:href="#DejaVuSans-31" x="947.152344"/>
      <use xlink:href="#DejaVuSans-2e" x="1010.775391"/>
      <use xlink:href="#DejaVuSans-32" x="1042.5625"/>
      <use xlink:href="#DejaVuSans-33" x="1106.185547"/>
     </g>
    </g>
   </g>
  </g>
 </g>
 <defs>
  <clipPath id="p48e71de185">
   <rect x="47.81" y="25.44" width="805.39" height="353.997127"/>
  </clipPath>
 </defs>
</svg>
