<?xml version="1.0" encoding="utf-8" standalone="no"?>
<!DOCTYPE svg PUBLIC "-//W3C//DTD SVG 1.1//EN"
  "http://www.w3.org/Graphics/SVG/1.1/DTD/svg11.dtd">
<svg xmlns:xlink="http://www.w3.org/1999/xlink" width="864pt" height="432pt" viewBox="0 0 864 432" xmlns="http://www.w3.org/2000/svg" version="1.1">
 <metadata>
  <rdf:RDF xmlns:dc="http://purl.org/dc/elements/1.1/" xmlns:cc="http://creativecommons.org/ns#" xmlns:rdf="http://www.w3.org/1999/02/22-rdf-syntax-ns#">
   <cc:Work>
    <dc:type rdf:resource="http://purl.org/dc/dcmitype/StillImage"/>
    <dc:date>1980-01-01T00:00:00+00:00</dc:date>
    <dc:format>image/svg+xml</dc:format>
    <dc:creator>
     <cc:Agent>
      <dc:title>Matplotlib v3.9.2, https://matplotlib.org/</dc:title>
     </cc:Agent>
    </dc:creator>
   </cc:Work>
  </rdf:RDF>
 </metadata>
 <defs>
  <style type="text/css">*{stroke-linejoin: round; stroke-linecap: butt}</style>
 </defs>
 <g id="figure_1">
  <g id="patch_1">
   <path d="M 0 432 
L 864 432 
L 864 0 
L 0 0 
L 0 432 
z
" style="fill: none"/>
  </g>
  <g id="axes_1">
   <g id="patch_2">
    <path d="M 47.81 379.437127 
L 853.2 379.437127 
L 853.2 25.44 
L 47.81 25.44 
L 47.81 379.437127 
z
" style="fill: none"/>
   </g>
   <g id="matplotlib.axis_1">
    <g id="xtick_1">
     <g id="line2d_1">
      <path d="M 80.720794 379.437127 
L 80.720794 25.44 
" clip-path="url(#p94cf3b10d3)" style="fill: none; stroke: #b0b0b0; stroke-width: 0.8; stroke-linecap: square"/>
     </g>
     <g id="line2d_2">
      <defs>
       <path id="mdde85534ee" d="M 0 0 
L 0 3.5 
" style="stroke: #000000; stroke-width: 0.8"/>
      </defs>
      <g>
       <use xlink:href="#mdde85534ee" x="80.720794" y="379.437127" style="stroke: #000000; stroke-width: 0.8"/>
      </g>
     </g>
     <g id="text_1">
      <!-- 0 -->
      <g transform="translate(80.422484 396.309) rotate(-45) scale(0.1 -0.1)">
       <defs>
        <path id="DejaVuSans-30" d="M 2034 4250 
Q 1547 4250 1301 3770 
Q 1056 3291 1056 2328 
Q 1056 1369 1301 889 
Q 1547 409 2034 409 
Q 2525 409 2770 889 
Q 3016 1369 3016 2328 
Q 3016 3291 2770 3770 
Q 2525 4250 2034 4250 
z
M 2034 4750 
Q 2819 4750 3233 4129 
Q 3647 3509 3647 2328 
Q 3647 1150 3233 529 
Q 2819 -91 2034 -91 
Q 1250 -91 836 529 
Q 422 1150 422 2328 
Q 422 3509 836 4129 
Q 1250 4750 2034 4750 
z
" transform="scale(0.015625)"/>
       </defs>
       <use xlink:href="#DejaVuSans-30"/>
      </g>
     </g>
    </g>
    <g id="xtick_2">
     <g id="line2d_3">
      <path d="M 173.166846 379.437127 
L 173.166846 25.44 
" clip-path="url(#p94cf3b10d3)" style="fill: none; stroke: #b0b0b0; stroke-width: 0.8; stroke-linecap: square"/>
     </g>
     <g id="line2d_4">
      <g>
       <use xlink:href="#mdde85534ee" x="173.166846" y="379.437127" style="stroke: #000000; stroke-width: 0.8"/>
      </g>
     </g>
     <g id="text_2">
      <!-- 25 -->
      <g transform="translate(170.619052 400.807967) rotate(-45) scale(0.1 -0.1)">
       <defs>
        <path id="DejaVuSans-32" d="M 1228 531 
L 3431 531 
L 3431 0 
L 469 0 
L 469 531 
Q 828 903 1448 1529 
Q 2069 2156 2228 2338 
Q 2531 2678 2651 2914 
Q 2772 3150 2772 3378 
Q 2772 3750 2511 3984 
Q 2250 4219 1831 4219 
Q 1534 4219 1204 4116 
Q 875 4013 500 3803 
L 500 4441 
Q 881 4594 1212 4672 
Q 1544 4750 1819 4750 
Q 2544 4750 2975 4387 
Q 3406 4025 3406 3419 
Q 3406 3131 3298 2873 
Q 3191 2616 2906 2266 
Q 2828 2175 2409 1742 
Q 1991 1309 1228 531 
z
" transform="scale(0.015625)"/>
        <path id="DejaVuSans-35" d="M 691 4666 
L 3169 4666 
L 3169 4134 
L 1269 4134 
L 1269 2991 
Q 1406 3038 1543 3061 
Q 1681 3084 1819 3084 
Q 2600 3084 3056 2656 
Q 3513 2228 3513 1497 
Q 3513 744 3044 326 
Q 2575 -91 1722 -91 
Q 1428 -91 1123 -41 
Q 819 9 494 109 
L 494 744 
Q 775 591 1075 516 
Q 1375 441 1709 441 
Q 2250 441 2565 725 
Q 2881 1009 2881 1497 
Q 2881 1984 2565 2268 
Q 2250 2553 1709 2553 
Q 1456 2553 1204 2497 
Q 953 2441 691 2322 
L 691 4666 
z
" transform="scale(0.015625)"/>
       </defs>
       <use xlink:href="#DejaVuSans-32"/>
       <use xlink:href="#DejaVuSans-35" x="63.623047"/>
      </g>
     </g>
    </g>
    <g id="xtick_3">
     <g id="line2d_5">
      <path d="M 265.612897 379.437127 
L 265.612897 25.44 
" clip-path="url(#p94cf3b10d3)" style="fill: none; stroke: #b0b0b0; stroke-width: 0.8; stroke-linecap: square"/>
     </g>
     <g id="line2d_6">
      <g>
       <use xlink:href="#mdde85534ee" x="265.612897" y="379.437127" style="stroke: #000000; stroke-width: 0.8"/>
      </g>
     </g>
     <g id="text_3">
      <!-- 50 -->
      <g transform="translate(263.065103 400.807967) rotate(-45) scale(0.1 -0.1)">
       <use xlink:href="#DejaVuSans-35"/>
       <use xlink:href="#DejaVuSans-30" x="63.623047"/>
      </g>
     </g>
    </g>
    <g id="xtick_4">
     <g id="line2d_7">
      <path d="M 358.058949 379.437127 
L 358.058949 25.44 
" clip-path="url(#p94cf3b10d3)" style="fill: none; stroke: #b0b0b0; stroke-width: 0.8; stroke-linecap: square"/>
     </g>
     <g id="line2d_8">
      <g>
       <use xlink:href="#mdde85534ee" x="358.058949" y="379.437127" style="stroke: #000000; stroke-width: 0.8"/>
      </g>
     </g>
     <g id="text_4">
      <!-- 75 -->
      <g transform="translate(355.511154 400.807967) rotate(-45) scale(0.1 -0.1)">
       <defs>
        <path id="DejaVuSans-37" d="M 525 4666 
L 3525 4666 
L 3525 4397 
L 1831 0 
L 1172 0 
L 2766 4134 
L 525 4134 
L 525 4666 
z
" transform="scale(0.015625)"/>
       </defs>
       <use xlink:href="#DejaVuSans-37"/>
       <use xlink:href="#DejaVuSans-35" x="63.623047"/>
      </g>
     </g>
    </g>
    <g id="xtick_5">
     <g id="line2d_9">
      <path d="M 450.505 379.437127 
L 450.505 25.44 
" clip-path="url(#p94cf3b10d3)" style="fill: none; stroke: #b0b0b0; stroke-width: 0.8; stroke-linecap: square"/>
     </g>
     <g id="line2d_10">
      <g>
       <use xlink:href="#mdde85534ee" x="450.505" y="379.437127" style="stroke: #000000; stroke-width: 0.8"/>
      </g>
     </g>
     <g id="text_5">
      <!-- 100 -->
      <g transform="translate(445.707722 405.306934) rotate(-45) scale(0.1 -0.1)">
       <defs>
        <path id="DejaVuSans-31" d="M 794 531 
L 1825 531 
L 1825 4091 
L 703 3866 
L 703 4441 
L 1819 4666 
L 2450 4666 
L 2450 531 
L 3481 531 
L 3481 0 
L 794 0 
L 794 531 
z
" transform="scale(0.015625)"/>
       </defs>
       <use xlink:href="#DejaVuSans-31"/>
       <use xlink:href="#DejaVuSans-30" x="63.623047"/>
       <use xlink:href="#DejaVuSans-30" x="127.246094"/>
      </g>
     </g>
    </g>
    <g id="xtick_6">
     <g id="line2d_11">
      <path d="M 542.951051 379.437127 
L 542.951051 25.44 
" clip-path="url(#p94cf3b10d3)" style="fill: none; stroke: #b0b0b0; stroke-width: 0.8; stroke-linecap: square"/>
     </g>
     <g id="line2d_12">
      <g>
       <use xlink:href="#mdde85534ee" x="542.951051" y="379.437127" style="stroke: #000000; stroke-width: 0.8"/>
      </g>
     </g>
     <g id="text_6">
      <!-- 125 -->
      <g transform="translate(538.153774 405.306934) rotate(-45) scale(0.1 -0.1)">
       <use xlink:href="#DejaVuSans-31"/>
       <use xlink:href="#DejaVuSans-32" x="63.623047"/>
       <use xlink:href="#DejaVuSans-35" x="127.246094"/>
      </g>
     </g>
    </g>
    <g id="xtick_7">
     <g id="line2d_13">
      <path d="M 635.397103 379.437127 
L 635.397103 25.44 
" clip-path="url(#p94cf3b10d3)" style="fill: none; stroke: #b0b0b0; stroke-width: 0.8; stroke-linecap: square"/>
     </g>
     <g id="line2d_14">
      <g>
       <use xlink:href="#mdde85534ee" x="635.397103" y="379.437127" style="stroke: #000000; stroke-width: 0.8"/>
      </g>
     </g>
     <g id="text_7">
      <!-- 150 -->
      <g transform="translate(630.599825 405.306934) rotate(-45) scale(0.1 -0.1)">
       <use xlink:href="#DejaVuSans-31"/>
       <use xlink:href="#DejaVuSans-35" x="63.623047"/>
       <use xlink:href="#DejaVuSans-30" x="127.246094"/>
      </g>
     </g>
    </g>
    <g id="xtick_8">
     <g id="line2d_15">
      <path d="M 727.843154 379.437127 
L 727.843154 25.44 
" clip-path="url(#p94cf3b10d3)" style="fill: none; stroke: #b0b0b0; stroke-width: 0.8; stroke-linecap: square"/>
     </g>
     <g id="line2d_16">
      <g>
       <use xlink:href="#mdde85534ee" x="727.843154" y="379.437127" style="stroke: #000000; stroke-width: 0.8"/>
      </g>
     </g>
     <g id="text_8">
      <!-- 175 -->
      <g transform="translate(723.045877 405.306934) rotate(-45) scale(0.1 -0.1)">
       <use xlink:href="#DejaVuSans-31"/>
       <use xlink:href="#DejaVuSans-37" x="63.623047"/>
       <use xlink:href="#DejaVuSans-35" x="127.246094"/>
      </g>
     </g>
    </g>
    <g id="xtick_9">
     <g id="line2d_17">
      <path d="M 820.289206 379.437127 
L 820.289206 25.44 
" clip-path="url(#p94cf3b10d3)" style="fill: none; stroke: #b0b0b0; stroke-width: 0.8; stroke-linecap: square"/>
     </g>
     <g id="line2d_18">
      <g>
       <use xlink:href="#mdde85534ee" x="820.289206" y="379.437127" style="stroke: #000000; stroke-width: 0.8"/>
      </g>
     </g>
     <g id="text_9">
      <!-- 200 -->
      <g transform="translate(815.491928 405.306934) rotate(-45) scale(0.1 -0.1)">
       <use xlink:href="#DejaVuSans-32"/>
       <use xlink:href="#DejaVuSans-30" x="63.623047"/>
       <use xlink:href="#DejaVuSans-30" x="127.246094"/>
      </g>
     </g>
    </g>
    <g id="text_10">
     <!-- Index -->
     <g transform="translate(436.738594 418.375933) scale(0.1 -0.1)">
      <defs>
       <path id="DejaVuSans-49" d="M 628 4666 
L 1259 4666 
L 1259 0 
L 628 0 
L 628 4666 
z
" transform="scale(0.015625)"/>
       <path id="DejaVuSans-6e" d="M 3513 2113 
L 3513 0 
L 2938 0 
L 2938 2094 
Q 2938 2591 2744 2837 
Q 2550 3084 2163 3084 
Q 1697 3084 1428 2787 
Q 1159 2491 1159 1978 
L 1159 0 
L 581 0 
L 581 3500 
L 1159 3500 
L 1159 2956 
Q 1366 3272 1645 3428 
Q 1925 3584 2291 3584 
Q 2894 3584 3203 3211 
Q 3513 2838 3513 2113 
z
" transform="scale(0.015625)"/>
       <path id="DejaVuSans-64" d="M 2906 2969 
L 2906 4863 
L 3481 4863 
L 3481 0 
L 2906 0 
L 2906 525 
Q 2725 213 2448 61 
Q 2172 -91 1784 -91 
Q 1150 -91 751 415 
Q 353 922 353 1747 
Q 353 2572 751 3078 
Q 1150 3584 1784 3584 
Q 2172 3584 2448 3432 
Q 2725 3281 2906 2969 
z
M 947 1747 
Q 947 1113 1208 752 
Q 1469 391 1925 391 
Q 2381 391 2643 752 
Q 2906 1113 2906 1747 
Q 2906 2381 2643 2742 
Q 2381 3103 1925 3103 
Q 1469 3103 1208 2742 
Q 947 2381 947 1747 
z
" transform="scale(0.015625)"/>
       <path id="DejaVuSans-65" d="M 3597 1894 
L 3597 1613 
L 953 1613 
Q 991 1019 1311 708 
Q 1631 397 2203 397 
Q 2534 397 2845 478 
Q 3156 559 3463 722 
L 3463 178 
Q 3153 47 2828 -22 
Q 2503 -91 2169 -91 
Q 1331 -91 842 396 
Q 353 884 353 1716 
Q 353 2575 817 3079 
Q 1281 3584 2069 3584 
Q 2775 3584 3186 3129 
Q 3597 2675 3597 1894 
z
M 3022 2063 
Q 3016 2534 2758 2815 
Q 2500 3097 2075 3097 
Q 1594 3097 1305 2825 
Q 1016 2553 972 2059 
L 3022 2063 
z
" transform="scale(0.015625)"/>
       <path id="DejaVuSans-78" d="M 3513 3500 
L 2247 1797 
L 3578 0 
L 2900 0 
L 1881 1375 
L 863 0 
L 184 0 
L 1544 1831 
L 300 3500 
L 978 3500 
L 1906 2253 
L 2834 3500 
L 3513 3500 
z
" transform="scale(0.015625)"/>
      </defs>
      <use xlink:href="#DejaVuSans-49"/>
      <use xlink:href="#DejaVuSans-6e" x="29.492188"/>
      <use xlink:href="#DejaVuSans-64" x="92.871094"/>
      <use xlink:href="#DejaVuSans-65" x="156.347656"/>
      <use xlink:href="#DejaVuSans-78" x="216.121094"/>
     </g>
    </g>
   </g>
   <g id="matplotlib.axis_2">
    <g id="ytick_1">
     <g id="line2d_19">
      <path d="M 47.81 360.590147 
L 853.2 360.590147 
" clip-path="url(#p94cf3b10d3)" style="fill: none; stroke: #b0b0b0; stroke-width: 0.8; stroke-linecap: square"/>
     </g>
     <g id="line2d_20">
      <defs>
       <path id="m4b107cd88c" d="M 0 0 
L -3.5 0 
" style="stroke: #000000; stroke-width: 0.8"/>
      </defs>
      <g>
       <use xlink:href="#m4b107cd88c" x="47.81" y="360.590147" style="stroke: #000000; stroke-width: 0.8"/>
      </g>
     </g>
     <g id="text_11">
      <!-- 0.6 -->
      <g transform="translate(24.906875 364.389366) scale(0.1 -0.1)">
       <defs>
        <path id="DejaVuSans-2e" d="M 684 794 
L 1344 794 
L 1344 0 
L 684 0 
L 684 794 
z
" transform="scale(0.015625)"/>
        <path id="DejaVuSans-36" d="M 2113 2584 
Q 1688 2584 1439 2293 
Q 1191 2003 1191 1497 
Q 1191 994 1439 701 
Q 1688 409 2113 409 
Q 2538 409 2786 701 
Q 3034 994 3034 1497 
Q 3034 2003 2786 2293 
Q 2538 2584 2113 2584 
z
M 3366 4563 
L 3366 3988 
Q 3128 4100 2886 4159 
Q 2644 4219 2406 4219 
Q 1781 4219 1451 3797 
Q 1122 3375 1075 2522 
Q 1259 2794 1537 2939 
Q 1816 3084 2150 3084 
Q 2853 3084 3261 2657 
Q 3669 2231 3669 1497 
Q 3669 778 3244 343 
Q 2819 -91 2113 -91 
Q 1303 -91 875 529 
Q 447 1150 447 2328 
Q 447 3434 972 4092 
Q 1497 4750 2381 4750 
Q 2619 4750 2861 4703 
Q 3103 4656 3366 4563 
z
" transform="scale(0.015625)"/>
       </defs>
       <use xlink:href="#DejaVuSans-30"/>
       <use xlink:href="#DejaVuSans-2e" x="63.623047"/>
       <use xlink:href="#DejaVuSans-36" x="95.410156"/>
      </g>
     </g>
    </g>
    <g id="ytick_2">
     <g id="line2d_21">
      <path d="M 47.81 282.950685 
L 853.2 282.950685 
" clip-path="url(#p94cf3b10d3)" style="fill: none; stroke: #b0b0b0; stroke-width: 0.8; stroke-linecap: square"/>
     </g>
     <g id="line2d_22">
      <g>
       <use xlink:href="#m4b107cd88c" x="47.81" y="282.950685" style="stroke: #000000; stroke-width: 0.8"/>
      </g>
     </g>
     <g id="text_12">
      <!-- 0.8 -->
      <g transform="translate(24.906875 286.749904) scale(0.1 -0.1)">
       <defs>
        <path id="DejaVuSans-38" d="M 2034 2216 
Q 1584 2216 1326 1975 
Q 1069 1734 1069 1313 
Q 1069 891 1326 650 
Q 1584 409 2034 409 
Q 2484 409 2743 651 
Q 3003 894 3003 1313 
Q 3003 1734 2745 1975 
Q 2488 2216 2034 2216 
z
M 1403 2484 
Q 997 2584 770 2862 
Q 544 3141 544 3541 
Q 544 4100 942 4425 
Q 1341 4750 2034 4750 
Q 2731 4750 3128 4425 
Q 3525 4100 3525 3541 
Q 3525 3141 3298 2862 
Q 3072 2584 2669 2484 
Q 3125 2378 3379 2068 
Q 3634 1759 3634 1313 
Q 3634 634 3220 271 
Q 2806 -91 2034 -91 
Q 1263 -91 848 271 
Q 434 634 434 1313 
Q 434 1759 690 2068 
Q 947 2378 1403 2484 
z
M 1172 3481 
Q 1172 3119 1398 2916 
Q 1625 2713 2034 2713 
Q 2441 2713 2670 2916 
Q 2900 3119 2900 3481 
Q 2900 3844 2670 4047 
Q 2441 4250 2034 4250 
Q 1625 4250 1398 4047 
Q 1172 3844 1172 3481 
z
" transform="scale(0.015625)"/>
       </defs>
       <use xlink:href="#DejaVuSans-30"/>
       <use xlink:href="#DejaVuSans-2e" x="63.623047"/>
       <use xlink:href="#DejaVuSans-38" x="95.410156"/>
      </g>
     </g>
    </g>
    <g id="ytick_3">
     <g id="line2d_23">
      <path d="M 47.81 205.311223 
L 853.2 205.311223 
" clip-path="url(#p94cf3b10d3)" style="fill: none; stroke: #b0b0b0; stroke-width: 0.8; stroke-linecap: square"/>
     </g>
     <g id="line2d_24">
      <g>
       <use xlink:href="#m4b107cd88c" x="47.81" y="205.311223" style="stroke: #000000; stroke-width: 0.8"/>
      </g>
     </g>
     <g id="text_13">
      <!-- 1.0 -->
      <g transform="translate(24.906875 209.110442) scale(0.1 -0.1)">
       <use xlink:href="#DejaVuSans-31"/>
       <use xlink:href="#DejaVuSans-2e" x="63.623047"/>
       <use xlink:href="#DejaVuSans-30" x="95.410156"/>
      </g>
     </g>
    </g>
    <g id="ytick_4">
     <g id="line2d_25">
      <path d="M 47.81 127.671761 
L 853.2 127.671761 
" clip-path="url(#p94cf3b10d3)" style="fill: none; stroke: #b0b0b0; stroke-width: 0.8; stroke-linecap: square"/>
     </g>
     <g id="line2d_26">
      <g>
       <use xlink:href="#m4b107cd88c" x="47.81" y="127.671761" style="stroke: #000000; stroke-width: 0.8"/>
      </g>
     </g>
     <g id="text_14">
      <!-- 1.2 -->
      <g transform="translate(24.906875 131.47098) scale(0.1 -0.1)">
       <use xlink:href="#DejaVuSans-31"/>
       <use xlink:href="#DejaVuSans-2e" x="63.623047"/>
       <use xlink:href="#DejaVuSans-32" x="95.410156"/>
      </g>
     </g>
    </g>
    <g id="ytick_5">
     <g id="line2d_27">
      <path d="M 47.81 50.0323 
L 853.2 50.0323 
" clip-path="url(#p94cf3b10d3)" style="fill: none; stroke: #b0b0b0; stroke-width: 0.8; stroke-linecap: square"/>
     </g>
     <g id="line2d_28">
      <g>
       <use xlink:href="#m4b107cd88c" x="47.81" y="50.0323" style="stroke: #000000; stroke-width: 0.8"/>
      </g>
     </g>
     <g id="text_15">
      <!-- 1.4 -->
      <g transform="translate(24.906875 53.831518) scale(0.1 -0.1)">
       <defs>
        <path id="DejaVuSans-34" d="M 2419 4116 
L 825 1625 
L 2419 1625 
L 2419 4116 
z
M 2253 4666 
L 3047 4666 
L 3047 1625 
L 3713 1625 
L 3713 1100 
L 3047 1100 
L 3047 0 
L 2419 0 
L 2419 1100 
L 313 1100 
L 313 1709 
L 2253 4666 
z
" transform="scale(0.015625)"/>
       </defs>
       <use xlink:href="#DejaVuSans-31"/>
       <use xlink:href="#DejaVuSans-2e" x="63.623047"/>
       <use xlink:href="#DejaVuSans-34" x="95.410156"/>
      </g>
     </g>
    </g>
    <g id="text_16">
     <!-- Wattage [W] -->
     <g transform="translate(18.827187 233.797157) rotate(-90) scale(0.1 -0.1)">
      <defs>
       <path id="DejaVuSans-57" d="M 213 4666 
L 850 4666 
L 1831 722 
L 2809 4666 
L 3519 4666 
L 4500 722 
L 5478 4666 
L 6119 4666 
L 4947 0 
L 4153 0 
L 3169 4050 
L 2175 0 
L 1381 0 
L 213 4666 
z
" transform="scale(0.015625)"/>
       <path id="DejaVuSans-61" d="M 2194 1759 
Q 1497 1759 1228 1600 
Q 959 1441 959 1056 
Q 959 750 1161 570 
Q 1363 391 1709 391 
Q 2188 391 2477 730 
Q 2766 1069 2766 1631 
L 2766 1759 
L 2194 1759 
z
M 3341 1997 
L 3341 0 
L 2766 0 
L 2766 531 
Q 2569 213 2275 61 
Q 1981 -91 1556 -91 
Q 1019 -91 701 211 
Q 384 513 384 1019 
Q 384 1609 779 1909 
Q 1175 2209 1959 2209 
L 2766 2209 
L 2766 2266 
Q 2766 2663 2505 2880 
Q 2244 3097 1772 3097 
Q 1472 3097 1187 3025 
Q 903 2953 641 2809 
L 641 3341 
Q 956 3463 1253 3523 
Q 1550 3584 1831 3584 
Q 2591 3584 2966 3190 
Q 3341 2797 3341 1997 
z
" transform="scale(0.015625)"/>
       <path id="DejaVuSans-74" d="M 1172 4494 
L 1172 3500 
L 2356 3500 
L 2356 3053 
L 1172 3053 
L 1172 1153 
Q 1172 725 1289 603 
Q 1406 481 1766 481 
L 2356 481 
L 2356 0 
L 1766 0 
Q 1100 0 847 248 
Q 594 497 594 1153 
L 594 3053 
L 172 3053 
L 172 3500 
L 594 3500 
L 594 4494 
L 1172 4494 
z
" transform="scale(0.015625)"/>
       <path id="DejaVuSans-67" d="M 2906 1791 
Q 2906 2416 2648 2759 
Q 2391 3103 1925 3103 
Q 1463 3103 1205 2759 
Q 947 2416 947 1791 
Q 947 1169 1205 825 
Q 1463 481 1925 481 
Q 2391 481 2648 825 
Q 2906 1169 2906 1791 
z
M 3481 434 
Q 3481 -459 3084 -895 
Q 2688 -1331 1869 -1331 
Q 1566 -1331 1297 -1286 
Q 1028 -1241 775 -1147 
L 775 -588 
Q 1028 -725 1275 -790 
Q 1522 -856 1778 -856 
Q 2344 -856 2625 -561 
Q 2906 -266 2906 331 
L 2906 616 
Q 2728 306 2450 153 
Q 2172 0 1784 0 
Q 1141 0 747 490 
Q 353 981 353 1791 
Q 353 2603 747 3093 
Q 1141 3584 1784 3584 
Q 2172 3584 2450 3431 
Q 2728 3278 2906 2969 
L 2906 3500 
L 3481 3500 
L 3481 434 
z
" transform="scale(0.015625)"/>
       <path id="DejaVuSans-20" transform="scale(0.015625)"/>
       <path id="DejaVuSans-5b" d="M 550 4863 
L 1875 4863 
L 1875 4416 
L 1125 4416 
L 1125 -397 
L 1875 -397 
L 1875 -844 
L 550 -844 
L 550 4863 
z
" transform="scale(0.015625)"/>
       <path id="DejaVuSans-5d" d="M 1947 4863 
L 1947 -844 
L 622 -844 
L 622 -397 
L 1369 -397 
L 1369 4416 
L 622 4416 
L 622 4863 
L 1947 4863 
z
" transform="scale(0.015625)"/>
      </defs>
      <use xlink:href="#DejaVuSans-57"/>
      <use xlink:href="#DejaVuSans-61" x="92.501953"/>
      <use xlink:href="#DejaVuSans-74" x="153.78125"/>
      <use xlink:href="#DejaVuSans-74" x="192.990234"/>
      <use xlink:href="#DejaVuSans-61" x="232.199219"/>
      <use xlink:href="#DejaVuSans-67" x="293.478516"/>
      <use xlink:href="#DejaVuSans-65" x="356.955078"/>
      <use xlink:href="#DejaVuSans-20" x="418.478516"/>
      <use xlink:href="#DejaVuSans-5b" x="450.265625"/>
      <use xlink:href="#DejaVuSans-57" x="489.279297"/>
      <use xlink:href="#DejaVuSans-5d" x="588.15625"/>
     </g>
    </g>
   </g>
   <g id="line2d_29">
    <path d="M 84.418636 69.908002 
L 91.81432 69.908002 
L 95.512163 96.305419 
L 99.210005 96.11132 
L 102.907847 95.334926 
L 106.605689 95.839582 
L 110.303531 79.535295 
L 114.001373 79.651754 
L 117.699215 90.676558 
L 121.397057 90.676558 
L 125.094899 90.987116 
L 128.792741 98.362865 
L 132.490583 98.052307 
L 136.188425 85.824092 
L 139.886267 86.134649 
L 143.584109 86.134649 
L 147.281951 82.058578 
L 150.979793 92.928102 
L 154.677635 99.333358 
L 158.375478 99.333358 
L 162.07332 83.22317 
L 165.771162 83.14553 
L 169.469004 85.086517 
L 173.166846 85.164156 
L 176.864688 139.317681 
L 180.56253 185.280242 
L 184.260372 185.280242 
L 187.958214 291.607485 
L 191.656056 291.568666 
L 195.353898 245.567284 
L 199.05174 245.644924 
L 202.749582 220.412099 
L 206.447424 258.765993 
L 210.145266 258.765993 
L 213.843108 190.249168 
L 217.54095 190.326807 
L 221.238792 90.793017 
L 224.936635 90.793017 
L 228.634477 91.375313 
L 232.332319 91.064755 
L 236.030161 110.785179 
L 239.728003 78.525982 
L 243.425845 78.448343 
L 247.123687 79.224737 
L 250.821529 79.302377 
L 254.519371 75.032206 
L 258.217213 75.459223 
L 261.915055 75.769781 
L 265.612897 118.820863 
L 269.310739 118.820863 
L 273.008581 220.140361 
L 276.706423 220.140361 
L 280.404265 278.952253 
L 284.102107 278.952253 
L 287.799949 174.138979 
L 291.497792 91.957609 
L 295.195634 91.87997 
L 298.893476 67.617638 
L 302.591318 67.190621 
L 306.28916 85.435894 
L 309.987002 85.358255 
L 313.684844 87.881537 
L 317.382686 87.765078 
L 321.080528 70.956135 
L 324.77837 71.150233 
L 328.476212 71.693709 
L 332.174054 363.346348 
L 335.871896 363.346348 
L 339.569738 92.462266 
L 343.26758 92.462266 
L 346.965422 88.657932 
L 350.663264 88.269735 
L 354.361107 88.153275 
L 358.058949 66.414226 
L 361.756791 65.87075 
L 365.454633 100.49795 
L 369.152475 101.390804 
L 372.850317 77.128472 
L 376.548159 222.857742 
L 380.246001 222.857742 
L 383.943843 233.339069 
L 387.641685 233.339069 
L 391.339527 131.437275 
L 395.037369 131.553735 
L 398.735211 91.76351 
L 406.130895 91.375313 
L 409.828737 90.987116 
L 413.526579 90.870657 
L 417.224421 71.460791 
L 420.922264 71.65489 
L 424.620106 74.954567 
L 428.317948 75.381584 
L 432.01579 84.698319 
L 435.713632 226.351518 
L 439.411474 226.351518 
L 443.109316 290.209975 
L 446.807158 290.209975 
L 450.505 183.067518 
L 454.202842 183.145157 
L 457.900684 87.299241 
L 461.598526 84.775959 
L 465.296368 84.58186 
L 468.99421 75.071026 
L 472.692052 74.838108 
L 476.389894 79.302377 
L 480.087736 79.418836 
L 483.785579 103.29297 
L 487.483421 103.719987 
L 491.181263 73.246499 
L 494.879105 156.670101 
L 498.576947 156.670101 
L 502.274789 224.410531 
L 505.972631 224.410531 
L 509.670473 235.668253 
L 513.368315 235.745892 
L 517.066157 92.539905 
L 520.763999 87.49334 
L 524.461841 87.105143 
L 528.159683 97.392371 
L 531.857525 97.198273 
L 535.555367 81.243363 
L 539.253209 81.243363 
L 542.951051 71.538431 
L 546.648893 82.407955 
L 550.346736 82.951431 
L 554.044578 80.816346 
L 557.74242 80.816346 
L 561.440262 154.923213 
L 565.138104 154.923213 
L 568.835946 225.186926 
L 572.533788 225.186926 
L 576.23163 273.168113 
L 579.929472 94.092694 
L 583.627314 94.092694 
L 587.325156 93.898596 
L 591.022998 93.393939 
L 594.72084 83.689006 
L 598.418682 83.611367 
L 602.116524 78.914179 
L 605.814366 75.420404 
L 609.512208 76.041519 
L 613.210051 71.383152 
L 616.907893 71.499611 
L 620.605735 189.86097 
L 624.303577 189.86097 
L 628.001419 233.921365 
L 631.699261 270.644831 
L 635.397103 270.644831 
L 639.094945 70.21856 
L 642.792787 70.14092 
L 646.490629 87.609799 
L 650.188471 87.105143 
L 653.886313 82.407955 
L 657.584155 82.330316 
L 661.281997 68.238753 
L 664.979839 95.451385 
L 668.677681 95.529024 
L 672.375523 203.137318 
L 676.073365 203.525516 
L 679.771208 243.31574 
L 683.46905 243.31574 
L 687.166892 225.458664 
L 690.864734 94.286793 
L 694.562576 94.209153 
L 698.260418 89.938983 
L 709.353944 89.046129 
L 713.051786 76.584996 
L 716.749628 76.196798 
L 720.44747 77.128472 
L 724.145312 127.167105 
L 727.843154 127.167105 
L 731.540996 228.098405 
L 735.238838 228.098405 
L 738.93668 220.334459 
L 742.634522 220.412099 
L 746.332365 335.473781 
L 750.030207 66.530685 
L 753.728049 66.453046 
L 757.425891 89.744884 
L 761.123733 89.317867 
L 764.821575 88.735571 
L 768.519417 88.657932 
L 772.217259 74.838108 
L 775.915101 69.985641 
L 779.612943 70.723216 
L 783.310785 141.918603 
L 787.008627 141.918603 
L 790.706469 218.005275 
L 794.404311 218.005275 
L 798.102153 226.157419 
L 801.799995 147.663923 
L 805.497837 147.547464 
L 809.19568 91.491772 
L 812.893522 90.987116 
L 816.591364 80.855166 
L 816.591364 80.855166 
" clip-path="url(#p94cf3b10d3)" style="fill: none; stroke: #1f77b4; stroke-opacity: 0.3; stroke-width: 1.5; stroke-linecap: square"/>
   </g>
   <g id="line2d_30">
    <path d="M 84.418636 217.422979 
L 88.116478 217.422979 
L 91.81432 86.445207 
L 95.512163 86.522847 
L 99.210005 62.260515 
L 102.907847 64.783797 
L 106.605689 64.473239 
L 110.303531 72.625383 
L 114.001373 72.314825 
L 117.699215 83.378448 
L 121.397057 83.494908 
L 125.094899 70.994954 
L 128.792741 66.918883 
L 132.490583 67.22944 
L 136.188425 68.005835 
L 139.886267 68.083474 
L 143.584109 83.805466 
L 147.281951 83.805466 
L 150.979793 165.093982 
L 154.677635 241.685311 
L 158.375478 242.151148 
L 162.07332 84.775959 
L 165.771162 84.775959 
L 169.469004 94.286793 
L 173.166846 93.976235 
L 176.864688 77.089652 
L 180.56253 76.779094 
L 184.260372 72.508924 
L 187.958214 63.192188 
L 191.656056 63.425107 
L 195.353898 75.265125 
L 199.05174 75.653322 
L 202.749582 76.429717 
L 206.447424 76.429717 
L 210.145266 175.963507 
L 213.843108 221.770789 
L 217.54095 221.770789 
L 221.238792 145.722936 
L 224.936635 145.606477 
L 228.634477 60.901824 
L 232.332319 60.901824 
L 236.030161 79.535295 
L 239.728003 75.148665 
L 243.425845 76.390897 
L 247.123687 79.496475 
L 250.821529 79.612935 
L 254.519371 73.401778 
L 258.217213 73.906434 
L 261.915055 84.970057 
L 265.612897 84.970057 
L 269.310739 141.336307 
L 273.008581 212.764612 
L 276.706423 212.764612 
L 280.404265 215.287894 
L 284.102107 215.365534 
L 287.799949 154.069179 
L 291.497792 154.069179 
L 295.195634 68.588131 
L 298.893476 71.499611 
L 302.591318 71.499611 
L 306.28916 80.039952 
L 309.987002 79.612935 
L 313.684844 124.488544 
L 317.382686 124.216805 
L 321.080528 72.508924 
L 324.77837 73.518237 
L 328.476212 73.518237 
L 332.174054 151.157699 
L 335.871896 151.157699 
L 339.569738 217.888816 
L 343.26758 217.811177 
L 346.965422 342.189595 
L 350.663264 342.034316 
L 354.361107 73.984074 
L 358.058949 77.671948 
L 361.756791 77.555489 
L 365.454633 78.331883 
L 369.152475 78.564802 
L 372.850317 68.277573 
L 376.548159 68.66577 
L 380.246001 97.58647 
L 383.943843 137.570793 
L 387.641685 137.454334 
L 391.339527 208.106244 
L 395.037369 208.106244 
L 398.735211 220.916755 
L 402.433053 220.994395 
L 406.130895 202.749121 
L 409.828737 73.828795 
L 413.526579 73.906434 
L 417.224421 58.61146 
L 420.922264 58.145623 
L 424.620106 79.535295 
L 428.317948 79.302377 
L 432.01579 70.956135 
L 435.713632 71.072594 
L 439.411474 67.30708 
L 443.109316 71.57725 
L 446.807158 71.965448 
L 450.505 78.7589 
L 454.202842 78.448343 
L 457.900684 220.373279 
L 461.598526 220.606197 
L 465.296368 223.517677 
L 468.99421 193.820583 
L 472.692052 193.820583 
L 476.389894 76.623815 
L 480.087736 76.235618 
L 483.785579 73.518237 
L 487.483421 73.401778 
L 491.181263 82.912612 
L 494.879105 82.796152 
L 498.576947 73.207679 
L 502.274789 84.271302 
L 505.972631 84.698319 
L 509.670473 191.41376 
L 513.368315 191.41376 
L 517.066157 241.685311 
L 520.763999 241.685311 
L 524.461841 162.376601 
L 528.159683 69.830362 
L 531.857525 69.830362 
L 535.555367 69.053968 
L 539.253209 68.859869 
L 542.951051 72.547744 
L 546.648893 72.120726 
L 550.346736 70.296199 
L 554.044578 72.237186 
L 557.74242 72.741842 
L 561.440262 75.265125 
L 565.138104 75.265125 
L 568.835946 87.687439 
L 572.533788 87.687439 
L 576.23163 220.023901 
L 579.929472 204.806567 
L 583.627314 204.107812 
L 587.325156 195.373372 
L 591.022998 195.373372 
L 594.72084 84.193663 
L 598.418682 83.805466 
L 602.116524 71.965448 
L 605.814366 71.732529 
L 609.512208 75.226305 
L 613.210051 74.838108 
L 616.907893 75.459223 
L 620.605735 69.636264 
L 624.303577 69.558624 
L 628.001419 186.367195 
L 631.699261 186.444834 
L 635.397103 219.441605 
L 639.094945 207.795686 
L 642.792787 207.795686 
L 646.490629 103.021232 
L 650.188471 103.021232 
L 653.886313 69.053968 
L 657.584155 69.053968 
L 661.281997 73.130039 
L 664.979839 72.935941 
L 668.677681 70.17974 
L 672.375523 74.061713 
L 676.073365 74.178172 
L 679.771208 74.178172 
L 683.46905 74.294631 
L 687.166892 76.623815 
L 690.864734 77.012013 
L 694.562576 63.036909 
L 698.260418 152.322291 
L 701.95826 152.322291 
L 705.656102 218.082915 
L 709.353944 218.082915 
L 713.051786 235.551794 
L 716.749628 235.551794 
L 720.44747 149.799008 
L 724.145312 68.859869 
L 727.843154 68.66577 
L 731.540996 150.9636 
L 735.238838 150.614222 
L 738.93668 79.884673 
L 742.634522 80.001132 
L 746.332365 86.988683 
L 750.030207 87.49334 
L 753.728049 87.4157 
L 757.425891 114.550692 
L 761.123733 114.550692 
L 764.821575 180.156038 
L 768.519417 180.156038 
L 772.217259 205.582962 
L 775.915101 205.660601 
L 779.612943 222.935381 
L 783.310785 88.269735 
L 787.008627 88.269735 
L 790.706469 97.58647 
L 794.404311 97.081813 
L 798.102153 66.414226 
L 801.799995 66.297767 
L 805.497837 72.508924 
L 809.19568 76.0027 
L 812.893522 76.546176 
L 816.591364 72.858301 
L 816.591364 72.858301 
" clip-path="url(#p94cf3b10d3)" style="fill: none; stroke: #ff7f0e; stroke-opacity: 0.3; stroke-width: 1.5; stroke-linecap: square"/>
   </g>
   <g id="line2d_31">
    <path d="M 84.418636 166.142115 
L 88.116478 166.142115 
L 91.81432 166.646771 
L 95.512163 220.606197 
L 99.210005 220.606197 
L 102.907847 97.974667 
L 106.605689 97.974667 
L 110.303531 73.130039 
L 114.001373 72.625383 
L 117.699215 90.676558 
L 121.397057 80.855166 
L 125.094899 81.398642 
L 128.792741 78.098965 
L 132.490583 78.098965 
L 136.188425 203.059679 
L 139.886267 203.059679 
L 143.584109 237.60924 
L 147.281951 75.653322 
L 154.677635 75.653322 
L 158.375478 75.148665 
L 162.07332 90.094262 
L 165.771162 89.783704 
L 169.469004 68.821049 
L 173.166846 69.558624 
L 176.864688 119.597257 
L 180.56253 200.924594 
L 184.260372 200.924594 
L 187.958214 132.407769 
L 191.656056 132.524228 
L 195.353898 111.94977 
L 199.05174 111.833311 
L 202.749582 73.207679 
L 206.447424 73.401778 
L 210.145266 73.285318 
L 213.843108 76.390897 
L 217.54095 76.313257 
L 221.238792 185.086144 
L 224.936635 185.66844 
L 228.634477 118.937322 
L 232.332319 118.820863 
L 236.030161 186.755392 
L 239.728003 218.587571 
L 243.425845 218.587571 
L 247.123687 286.522101 
L 250.821529 286.56092 
L 254.519371 75.847421 
L 258.217213 75.847421 
L 261.915055 66.918883 
L 265.612897 98.751062 
L 269.310739 98.751062 
L 273.008581 77.555489 
L 276.706423 77.555489 
L 280.404265 69.209247 
L 284.102107 69.519805 
L 287.799949 80.428149 
L 291.497792 72.858301 
L 295.195634 72.935941 
L 298.893476 220.412099 
L 302.591318 220.334459 
L 306.28916 213.735105 
L 309.987002 213.812744 
L 313.684844 254.92284 
L 317.382686 41.530778 
L 321.080528 72.935941 
L 324.77837 72.159546 
L 328.476212 71.771349 
L 332.174054 69.248066 
L 335.871896 69.015148 
L 339.569738 69.985641 
L 343.26758 69.985641 
L 346.965422 66.685964 
L 350.663264 72.508924 
L 354.361107 73.130039 
L 358.058949 148.634416 
L 361.756791 148.440318 
L 365.454633 236.949304 
L 369.152475 237.104583 
L 372.850317 131.747833 
L 376.548159 65.560192 
L 380.246001 65.560192 
L 383.943843 83.22317 
L 387.641685 82.718513 
L 391.339527 73.984074 
L 395.037369 73.867614 
L 398.735211 78.914179 
L 402.433053 78.914179 
L 406.130895 78.681261 
L 409.828737 74.022893 
L 413.526579 74.100533 
L 417.224421 83.029071 
L 420.922264 82.951431 
L 424.620106 216.258388 
L 428.317948 216.258388 
L 432.01579 72.741842 
L 439.411474 72.664203 
L 443.109316 69.752723 
L 446.807158 69.442165 
L 450.505 69.830362 
L 454.202842 69.597444 
L 457.900684 78.137785 
L 461.598526 61.057103 
L 465.296368 61.48412 
L 468.99421 68.277573 
L 472.692052 68.471672 
L 476.389894 72.353645 
L 480.087736 72.276005 
L 483.785579 204.030172 
L 487.483421 204.107812 
L 491.181263 218.85931 
L 494.879105 235.745892 
L 498.576947 235.745892 
L 502.274789 73.130039 
L 505.972631 73.0524 
L 509.670473 68.588131 
L 513.368315 68.277573 
L 517.066157 74.644009 
L 520.763999 71.538431 
L 524.461841 71.771349 
L 528.159683 83.417268 
L 531.857525 83.805466 
L 535.555367 72.159546 
L 539.253209 72.081907 
L 542.951051 210.629527 
L 546.648893 232.252117 
L 550.346736 232.252117 
L 554.044578 165.870377 
L 557.74242 165.870377 
L 561.440262 104.574022 
L 565.138104 104.496382 
L 568.835946 74.411091 
L 572.533788 74.48873 
L 576.23163 87.881537 
L 579.929472 75.071026 
L 583.627314 74.838108 
L 587.325156 72.120726 
L 591.022998 72.237186 
L 594.72084 69.713903 
L 598.418682 70.21856 
L 605.814366 206.553455 
L 609.512208 206.553455 
L 613.210051 251.196145 
L 616.907893 251.273785 
L 620.605735 187.997623 
L 624.303577 187.919984 
L 628.001419 66.453046 
L 631.699261 62.765171 
L 635.397103 62.454613 
L 639.094945 129.418649 
L 642.792787 129.224551 
L 646.490629 74.838108 
L 650.188471 74.838108 
L 653.886313 77.555489 
L 657.584155 78.176605 
L 661.281997 128.642255 
L 664.979839 221.188493 
L 668.677681 221.110854 
L 672.375523 268.470926 
L 676.073365 268.509745 
L 679.771208 122.625196 
L 683.46905 122.508737 
L 687.166892 104.185824 
L 690.864734 66.918883 
L 694.562576 66.491865 
L 698.260418 77.36139 
L 701.95826 77.36139 
L 705.656102 61.4453 
L 709.353944 61.678219 
L 713.051786 68.083474 
L 716.749628 68.66577 
L 720.44747 68.588131 
L 724.145312 190.637365 
L 727.843154 190.637365 
L 731.540996 215.093796 
L 735.238838 215.093796 
L 738.93668 232.950872 
L 742.634522 233.028511 
L 746.332365 90.133082 
L 750.030207 67.617638 
L 753.728049 67.074161 
L 757.425891 85.164156 
L 761.123733 85.241796 
L 764.821575 66.608325 
L 768.519417 67.035342 
L 772.217259 75.575683 
L 775.915101 211.60002 
L 779.612943 211.60002 
L 783.310785 303.369864 
L 787.008627 303.369864 
L 790.706469 71.499611 
L 794.404311 71.499611 
L 798.102153 59.077297 
L 801.799995 74.48873 
L 805.497837 74.255812 
L 809.19568 69.985641 
L 812.893522 69.985641 
L 816.591364 69.791543 
L 816.591364 69.791543 
" clip-path="url(#p94cf3b10d3)" style="fill: none; stroke: #2ca02c; stroke-opacity: 0.3; stroke-width: 1.5; stroke-linecap: square"/>
   </g>
   <g id="line2d_32">
    <path d="M 84.418636 151.157699 
L 88.116478 151.157699 
L 91.81432 107.66666 
L 95.512163 134.478154 
L 99.210005 126.326011 
L 102.907847 86.03113 
L 106.605689 86.09583 
L 110.303531 75.096906 
L 114.001373 74.863987 
L 117.699215 88.243855 
L 121.397057 85.008877 
L 125.094899 81.126904 
L 132.490583 81.126904 
L 136.188425 118.963202 
L 139.886267 119.092601 
L 143.584109 135.849785 
L 147.281951 80.505788 
L 150.979793 111.225135 
L 154.677635 138.890664 
L 158.375478 138.877724 
L 162.07332 86.03113 
L 165.771162 85.901731 
L 169.469004 82.731453 
L 173.166846 82.899672 
L 176.864688 112.00153 
L 180.56253 154.327977 
L 184.260372 152.904587 
L 187.958214 162.402481 
L 191.656056 162.506 
L 195.353898 144.260727 
L 199.05174 144.377186 
L 202.749582 123.349831 
L 206.447424 136.199162 
L 210.145266 169.338273 
L 213.843108 162.803618 
L 217.54095 162.803618 
L 221.238792 140.534032 
L 224.936635 140.689311 
L 228.634477 90.40482 
L 232.332319 90.262481 
L 236.030161 125.691955 
L 239.728003 124.087406 
L 243.425845 124.475604 
L 247.123687 148.414438 
L 250.821529 148.492077 
L 254.519371 74.760468 
L 258.217213 75.071026 
L 261.915055 75.88624 
L 265.612897 100.847327 
L 269.310739 119.636077 
L 273.008581 170.153487 
L 276.706423 170.153487 
L 280.404265 187.816465 
L 284.102107 187.945864 
L 287.799949 136.212102 
L 291.497792 106.29503 
L 295.195634 77.801347 
L 298.893476 119.843116 
L 302.591318 119.674897 
L 306.28916 126.40365 
L 309.987002 126.261311 
L 313.684844 155.764307 
L 317.382686 84.504221 
L 321.080528 72.133666 
L 328.476212 72.327765 
L 332.174054 194.584038 
L 335.871896 194.506398 
L 339.569738 126.778908 
L 343.26758 126.753028 
L 346.965422 165.844497 
L 350.663264 167.604325 
L 354.361107 78.422463 
L 358.058949 97.57353 
L 361.756791 97.288852 
L 365.454633 138.593046 
L 369.152475 139.020063 
L 372.850317 92.384626 
L 376.548159 119.027901 
L 380.246001 128.668135 
L 383.943843 151.377677 
L 387.641685 151.170639 
L 391.339527 137.842531 
L 395.037369 137.842531 
L 398.735211 130.531482 
L 402.433053 130.492662 
L 406.130895 124.268565 
L 409.828737 79.612935 
L 413.526579 79.625874 
L 417.224421 71.033774 
L 420.922264 70.917315 
L 424.620106 123.58275 
L 428.317948 123.647449 
L 432.01579 76.132099 
L 435.713632 123.388651 
L 439.411474 122.1076 
L 443.109316 143.846649 
L 446.807158 143.872529 
L 450.505 110.55226 
L 454.202842 110.396981 
L 457.900684 128.603435 
L 461.598526 122.14642 
L 465.296368 123.194553 
L 468.99421 112.389727 
L 472.692052 112.376787 
L 476.389894 76.093279 
L 480.087736 75.97682 
L 483.785579 126.947127 
L 487.483421 127.076526 
L 491.181263 125.00614 
L 494.879105 158.404049 
L 498.576947 155.207891 
L 502.274789 127.270624 
L 505.972631 127.387083 
L 509.670473 165.223381 
L 513.368315 165.145742 
L 517.066157 136.289742 
L 520.763999 133.572361 
L 524.461841 107.084364 
L 528.159683 83.546667 
L 531.857525 83.611367 
L 535.555367 74.152292 
L 539.253209 74.061713 
L 542.951051 118.238567 
L 546.648893 128.926933 
L 550.346736 128.499916 
L 554.044578 106.30797 
L 557.74242 106.476188 
L 561.440262 111.587453 
L 565.138104 111.561573 
L 568.835946 129.095152 
L 572.533788 129.121031 
L 576.23163 193.691184 
L 579.929472 124.656762 
L 583.627314 124.346205 
L 587.325156 120.464231 
L 591.022998 120.334832 
L 594.72084 79.198857 
L 598.418682 79.211797 
L 602.116524 96.434818 
L 605.814366 117.902129 
L 609.512208 119.27376 
L 613.210051 132.472468 
L 616.907893 132.744206 
L 620.605735 149.164953 
L 624.303577 149.113193 
L 628.001419 162.247202 
L 635.397103 184.18035 
L 639.094945 135.810965 
L 642.792787 135.720386 
L 646.490629 88.489713 
L 650.188471 88.321494 
L 653.886313 76.339137 
L 657.584155 76.520296 
L 661.281997 90.003683 
L 664.979839 129.858606 
L 668.677681 128.939873 
L 672.375523 181.889986 
L 676.073365 182.071144 
L 679.771208 146.70637 
L 683.46905 146.70637 
L 687.166892 135.422768 
L 690.864734 79.405896 
L 694.562576 74.579309 
L 698.260418 106.540888 
L 701.95826 106.437369 
L 705.656102 122.922814 
L 709.353944 122.935754 
L 713.051786 126.740088 
L 716.749628 126.804787 
L 720.44747 98.505204 
L 724.145312 128.888113 
L 727.843154 128.823414 
L 731.540996 198.051934 
L 735.238838 197.935475 
L 738.93668 177.723335 
L 742.634522 177.813914 
L 746.332365 170.865182 
L 750.030207 73.880554 
L 753.728049 73.647636 
L 757.425891 96.486578 
L 761.123733 96.370118 
L 764.821575 111.833311 
L 768.519417 111.94977 
L 772.217259 118.665584 
L 775.915101 162.415421 
L 779.612943 168.419539 
L 783.310785 177.852734 
L 787.008627 177.852734 
L 790.706469 129.030452 
L 794.404311 128.862233 
L 798.102153 117.216314 
L 801.799995 96.15014 
L 805.497837 98.104066 
L 809.19568 79.160038 
L 812.893522 79.172978 
L 816.591364 74.50167 
L 816.591364 74.50167 
" clip-path="url(#p94cf3b10d3)" style="fill: none; stroke: #0000ff; stroke-width: 2; stroke-linecap: square"/>
   </g>
   <g id="line2d_33">
    <path d="M 47.81 121.912136 
L 853.2 121.912136 
" clip-path="url(#p94cf3b10d3)" style="fill: none; stroke-dasharray: 7.4,3.2; stroke-dashoffset: 0; stroke: #ff0000; stroke-width: 2"/>
   </g>
   <g id="patch_3">
    <path d="M 47.81 379.437127 
L 47.81 25.44 
" style="fill: none; stroke: #000000; stroke-width: 0.8; stroke-linejoin: miter; stroke-linecap: square"/>
   </g>
   <g id="patch_4">
    <path d="M 853.2 379.437127 
L 853.2 25.44 
" style="fill: none; stroke: #000000; stroke-width: 0.8; stroke-linejoin: miter; stroke-linecap: square"/>
   </g>
   <g id="patch_5">
    <path d="M 47.81 379.437127 
L 853.2 379.437127 
" style="fill: none; stroke: #000000; stroke-width: 0.8; stroke-linejoin: miter; stroke-linecap: square"/>
   </g>
   <g id="patch_6">
    <path d="M 47.81 25.44 
L 853.2 25.44 
" style="fill: none; stroke: #000000; stroke-width: 0.8; stroke-linejoin: miter; stroke-linecap: square"/>
   </g>
   <g id="text_17">
    <!-- RPI Zero power consumption while uploading -->
    <g transform="translate(314.767188 19.44) scale(0.12 -0.12)">
     <defs>
      <path id="DejaVuSans-52" d="M 2841 2188 
Q 3044 2119 3236 1894 
Q 3428 1669 3622 1275 
L 4263 0 
L 3584 0 
L 2988 1197 
Q 2756 1666 2539 1819 
Q 2322 1972 1947 1972 
L 1259 1972 
L 1259 0 
L 628 0 
L 628 4666 
L 2053 4666 
Q 2853 4666 3247 4331 
Q 3641 3997 3641 3322 
Q 3641 2881 3436 2590 
Q 3231 2300 2841 2188 
z
M 1259 4147 
L 1259 2491 
L 2053 2491 
Q 2509 2491 2742 2702 
Q 2975 2913 2975 3322 
Q 2975 3731 2742 3939 
Q 2509 4147 2053 4147 
L 1259 4147 
z
" transform="scale(0.015625)"/>
      <path id="DejaVuSans-50" d="M 1259 4147 
L 1259 2394 
L 2053 2394 
Q 2494 2394 2734 2622 
Q 2975 2850 2975 3272 
Q 2975 3691 2734 3919 
Q 2494 4147 2053 4147 
L 1259 4147 
z
M 628 4666 
L 2053 4666 
Q 2838 4666 3239 4311 
Q 3641 3956 3641 3272 
Q 3641 2581 3239 2228 
Q 2838 1875 2053 1875 
L 1259 1875 
L 1259 0 
L 628 0 
L 628 4666 
z
" transform="scale(0.015625)"/>
      <path id="DejaVuSans-5a" d="M 359 4666 
L 4025 4666 
L 4025 4184 
L 1075 531 
L 4097 531 
L 4097 0 
L 288 0 
L 288 481 
L 3238 4134 
L 359 4134 
L 359 4666 
z
" transform="scale(0.015625)"/>
      <path id="DejaVuSans-72" d="M 2631 2963 
Q 2534 3019 2420 3045 
Q 2306 3072 2169 3072 
Q 1681 3072 1420 2755 
Q 1159 2438 1159 1844 
L 1159 0 
L 581 0 
L 581 3500 
L 1159 3500 
L 1159 2956 
Q 1341 3275 1631 3429 
Q 1922 3584 2338 3584 
Q 2397 3584 2469 3576 
Q 2541 3569 2628 3553 
L 2631 2963 
z
" transform="scale(0.015625)"/>
      <path id="DejaVuSans-6f" d="M 1959 3097 
Q 1497 3097 1228 2736 
Q 959 2375 959 1747 
Q 959 1119 1226 758 
Q 1494 397 1959 397 
Q 2419 397 2687 759 
Q 2956 1122 2956 1747 
Q 2956 2369 2687 2733 
Q 2419 3097 1959 3097 
z
M 1959 3584 
Q 2709 3584 3137 3096 
Q 3566 2609 3566 1747 
Q 3566 888 3137 398 
Q 2709 -91 1959 -91 
Q 1206 -91 779 398 
Q 353 888 353 1747 
Q 353 2609 779 3096 
Q 1206 3584 1959 3584 
z
" transform="scale(0.015625)"/>
      <path id="DejaVuSans-70" d="M 1159 525 
L 1159 -1331 
L 581 -1331 
L 581 3500 
L 1159 3500 
L 1159 2969 
Q 1341 3281 1617 3432 
Q 1894 3584 2278 3584 
Q 2916 3584 3314 3078 
Q 3713 2572 3713 1747 
Q 3713 922 3314 415 
Q 2916 -91 2278 -91 
Q 1894 -91 1617 61 
Q 1341 213 1159 525 
z
M 3116 1747 
Q 3116 2381 2855 2742 
Q 2594 3103 2138 3103 
Q 1681 3103 1420 2742 
Q 1159 2381 1159 1747 
Q 1159 1113 1420 752 
Q 1681 391 2138 391 
Q 2594 391 2855 752 
Q 3116 1113 3116 1747 
z
" transform="scale(0.015625)"/>
      <path id="DejaVuSans-77" d="M 269 3500 
L 844 3500 
L 1563 769 
L 2278 3500 
L 2956 3500 
L 3675 769 
L 4391 3500 
L 4966 3500 
L 4050 0 
L 3372 0 
L 2619 2869 
L 1863 0 
L 1184 0 
L 269 3500 
z
" transform="scale(0.015625)"/>
      <path id="DejaVuSans-63" d="M 3122 3366 
L 3122 2828 
Q 2878 2963 2633 3030 
Q 2388 3097 2138 3097 
Q 1578 3097 1268 2742 
Q 959 2388 959 1747 
Q 959 1106 1268 751 
Q 1578 397 2138 397 
Q 2388 397 2633 464 
Q 2878 531 3122 666 
L 3122 134 
Q 2881 22 2623 -34 
Q 2366 -91 2075 -91 
Q 1284 -91 818 406 
Q 353 903 353 1747 
Q 353 2603 823 3093 
Q 1294 3584 2113 3584 
Q 2378 3584 2631 3529 
Q 2884 3475 3122 3366 
z
" transform="scale(0.015625)"/>
      <path id="DejaVuSans-73" d="M 2834 3397 
L 2834 2853 
Q 2591 2978 2328 3040 
Q 2066 3103 1784 3103 
Q 1356 3103 1142 2972 
Q 928 2841 928 2578 
Q 928 2378 1081 2264 
Q 1234 2150 1697 2047 
L 1894 2003 
Q 2506 1872 2764 1633 
Q 3022 1394 3022 966 
Q 3022 478 2636 193 
Q 2250 -91 1575 -91 
Q 1294 -91 989 -36 
Q 684 19 347 128 
L 347 722 
Q 666 556 975 473 
Q 1284 391 1588 391 
Q 1994 391 2212 530 
Q 2431 669 2431 922 
Q 2431 1156 2273 1281 
Q 2116 1406 1581 1522 
L 1381 1569 
Q 847 1681 609 1914 
Q 372 2147 372 2553 
Q 372 3047 722 3315 
Q 1072 3584 1716 3584 
Q 2034 3584 2315 3537 
Q 2597 3491 2834 3397 
z
" transform="scale(0.015625)"/>
      <path id="DejaVuSans-75" d="M 544 1381 
L 544 3500 
L 1119 3500 
L 1119 1403 
Q 1119 906 1312 657 
Q 1506 409 1894 409 
Q 2359 409 2629 706 
Q 2900 1003 2900 1516 
L 2900 3500 
L 3475 3500 
L 3475 0 
L 2900 0 
L 2900 538 
Q 2691 219 2414 64 
Q 2138 -91 1772 -91 
Q 1169 -91 856 284 
Q 544 659 544 1381 
z
M 1991 3584 
L 1991 3584 
z
" transform="scale(0.015625)"/>
      <path id="DejaVuSans-6d" d="M 3328 2828 
Q 3544 3216 3844 3400 
Q 4144 3584 4550 3584 
Q 5097 3584 5394 3201 
Q 5691 2819 5691 2113 
L 5691 0 
L 5113 0 
L 5113 2094 
Q 5113 2597 4934 2840 
Q 4756 3084 4391 3084 
Q 3944 3084 3684 2787 
Q 3425 2491 3425 1978 
L 3425 0 
L 2847 0 
L 2847 2094 
Q 2847 2600 2669 2842 
Q 2491 3084 2119 3084 
Q 1678 3084 1418 2786 
Q 1159 2488 1159 1978 
L 1159 0 
L 581 0 
L 581 3500 
L 1159 3500 
L 1159 2956 
Q 1356 3278 1631 3431 
Q 1906 3584 2284 3584 
Q 2666 3584 2933 3390 
Q 3200 3197 3328 2828 
z
" transform="scale(0.015625)"/>
      <path id="DejaVuSans-69" d="M 603 3500 
L 1178 3500 
L 1178 0 
L 603 0 
L 603 3500 
z
M 603 4863 
L 1178 4863 
L 1178 4134 
L 603 4134 
L 603 4863 
z
" transform="scale(0.015625)"/>
      <path id="DejaVuSans-68" d="M 3513 2113 
L 3513 0 
L 2938 0 
L 2938 2094 
Q 2938 2591 2744 2837 
Q 2550 3084 2163 3084 
Q 1697 3084 1428 2787 
Q 1159 2491 1159 1978 
L 1159 0 
L 581 0 
L 581 4863 
L 1159 4863 
L 1159 2956 
Q 1366 3272 1645 3428 
Q 1925 3584 2291 3584 
Q 2894 3584 3203 3211 
Q 3513 2838 3513 2113 
z
" transform="scale(0.015625)"/>
      <path id="DejaVuSans-6c" d="M 603 4863 
L 1178 4863 
L 1178 0 
L 603 0 
L 603 4863 
z
" transform="scale(0.015625)"/>
     </defs>
     <use xlink:href="#DejaVuSans-52"/>
     <use xlink:href="#DejaVuSans-50" x="69.482422"/>
     <use xlink:href="#DejaVuSans-49" x="129.785156"/>
     <use xlink:href="#DejaVuSans-20" x="159.277344"/>
     <use xlink:href="#DejaVuSans-5a" x="191.064453"/>
     <use xlink:href="#DejaVuSans-65" x="259.570312"/>
     <use xlink:href="#DejaVuSans-72" x="321.09375"/>
     <use xlink:href="#DejaVuSans-6f" x="359.957031"/>
     <use xlink:href="#DejaVuSans-20" x="421.138672"/>
     <use xlink:href="#DejaVuSans-70" x="452.925781"/>
     <use xlink:href="#DejaVuSans-6f" x="516.402344"/>
     <use xlink:href="#DejaVuSans-77" x="577.583984"/>
     <use xlink:href="#DejaVuSans-65" x="659.371094"/>
     <use xlink:href="#DejaVuSans-72" x="720.894531"/>
     <use xlink:href="#DejaVuSans-20" x="762.007812"/>
     <use xlink:href="#DejaVuSans-63" x="793.794922"/>
     <use xlink:href="#DejaVuSans-6f" x="848.775391"/>
     <use xlink:href="#DejaVuSans-6e" x="909.957031"/>
     <use xlink:href="#DejaVuSans-73" x="973.335938"/>
     <use xlink:href="#DejaVuSans-75" x="1025.435547"/>
     <use xlink:href="#DejaVuSans-6d" x="1088.814453"/>
     <use xlink:href="#DejaVuSans-70" x="1186.226562"/>
     <use xlink:href="#DejaVuSans-74" x="1249.703125"/>
     <use xlink:href="#DejaVuSans-69" x="1288.912109"/>
     <use xlink:href="#DejaVuSans-6f" x="1316.695312"/>
     <use xlink:href="#DejaVuSans-6e" x="1377.876953"/>
     <use xlink:href="#DejaVuSans-20" x="1441.255859"/>
     <use xlink:href="#DejaVuSans-77" x="1473.042969"/>
     <use xlink:href="#DejaVuSans-68" x="1554.830078"/>
     <use xlink:href="#DejaVuSans-69" x="1618.208984"/>
     <use xlink:href="#DejaVuSans-6c" x="1645.992188"/>
     <use xlink:href="#DejaVuSans-65" x="1673.775391"/>
     <use xlink:href="#DejaVuSans-20" x="1735.298828"/>
     <use xlink:href="#DejaVuSans-75" x="1767.085938"/>
     <use xlink:href="#DejaVuSans-70" x="1830.464844"/>
     <use xlink:href="#DejaVuSans-6c" x="1893.941406"/>
     <use xlink:href="#DejaVuSans-6f" x="1921.724609"/>
     <use xlink:href="#DejaVuSans-61" x="1982.90625"/>
     <use xlink:href="#DejaVuSans-64" x="2044.185547"/>
     <use xlink:href="#DejaVuSans-69" x="2107.662109"/>
     <use xlink:href="#DejaVuSans-6e" x="2135.445312"/>
     <use xlink:href="#DejaVuSans-67" x="2198.824219"/>
    </g>
   </g>
   <g id="legend_1">
    <g id="patch_7">
     <path d="M 54.81 374.437127 
L 203.794375 374.437127 
Q 205.794375 374.437127 205.794375 372.437127 
L 205.794375 300.046502 
Q 205.794375 298.046502 203.794375 298.046502 
L 54.81 298.046502 
Q 52.81 298.046502 52.81 300.046502 
L 52.81 372.437127 
Q 52.81 374.437127 54.81 374.437127 
z
" style="fill: #ffffff; opacity: 0.8; stroke: #cccccc; stroke-linejoin: miter"/>
    </g>
    <g id="line2d_34">
     <path d="M 56.81 306.144939 
L 66.81 306.144939 
L 76.81 306.144939 
" style="fill: none; stroke: #1f77b4; stroke-opacity: 0.3; stroke-width: 1.5; stroke-linecap: square"/>
    </g>
    <g id="text_18">
     <!-- Set 1 -->
     <g transform="translate(84.81 309.644939) scale(0.1 -0.1)">
      <defs>
       <path id="DejaVuSans-53" d="M 3425 4513 
L 3425 3897 
Q 3066 4069 2747 4153 
Q 2428 4238 2131 4238 
Q 1616 4238 1336 4038 
Q 1056 3838 1056 3469 
Q 1056 3159 1242 3001 
Q 1428 2844 1947 2747 
L 2328 2669 
Q 3034 2534 3370 2195 
Q 3706 1856 3706 1288 
Q 3706 609 3251 259 
Q 2797 -91 1919 -91 
Q 1588 -91 1214 -16 
Q 841 59 441 206 
L 441 856 
Q 825 641 1194 531 
Q 1563 422 1919 422 
Q 2459 422 2753 634 
Q 3047 847 3047 1241 
Q 3047 1584 2836 1778 
Q 2625 1972 2144 2069 
L 1759 2144 
Q 1053 2284 737 2584 
Q 422 2884 422 3419 
Q 422 4038 858 4394 
Q 1294 4750 2059 4750 
Q 2388 4750 2728 4690 
Q 3069 4631 3425 4513 
z
" transform="scale(0.015625)"/>
      </defs>
      <use xlink:href="#DejaVuSans-53"/>
      <use xlink:href="#DejaVuSans-65" x="63.476562"/>
      <use xlink:href="#DejaVuSans-74" x="125"/>
      <use xlink:href="#DejaVuSans-20" x="164.208984"/>
      <use xlink:href="#DejaVuSans-31" x="195.996094"/>
     </g>
    </g>
    <g id="line2d_35">
     <path d="M 56.81 320.823064 
L 66.81 320.823064 
L 76.81 320.823064 
" style="fill: none; stroke: #ff7f0e; stroke-opacity: 0.3; stroke-width: 1.5; stroke-linecap: square"/>
    </g>
    <g id="text_19">
     <!-- Set 2 -->
     <g transform="translate(84.81 324.323064) scale(0.1 -0.1)">
      <use xlink:href="#DejaVuSans-53"/>
      <use xlink:href="#DejaVuSans-65" x="63.476562"/>
      <use xlink:href="#DejaVuSans-74" x="125"/>
      <use xlink:href="#DejaVuSans-20" x="164.208984"/>
      <use xlink:href="#DejaVuSans-32" x="195.996094"/>
     </g>
    </g>
    <g id="line2d_36">
     <path d="M 56.81 335.501189 
L 66.81 335.501189 
L 76.81 335.501189 
" style="fill: none; stroke: #2ca02c; stroke-opacity: 0.3; stroke-width: 1.5; stroke-linecap: square"/>
    </g>
    <g id="text_20">
     <!-- Set 3 -->
     <g transform="translate(84.81 339.001189) scale(0.1 -0.1)">
      <defs>
       <path id="DejaVuSans-33" d="M 2597 2516 
Q 3050 2419 3304 2112 
Q 3559 1806 3559 1356 
Q 3559 666 3084 287 
Q 2609 -91 1734 -91 
Q 1441 -91 1130 -33 
Q 819 25 488 141 
L 488 750 
Q 750 597 1062 519 
Q 1375 441 1716 441 
Q 2309 441 2620 675 
Q 2931 909 2931 1356 
Q 2931 1769 2642 2001 
Q 2353 2234 1838 2234 
L 1294 2234 
L 1294 2753 
L 1863 2753 
Q 2328 2753 2575 2939 
Q 2822 3125 2822 3475 
Q 2822 3834 2567 4026 
Q 2313 4219 1838 4219 
Q 1578 4219 1281 4162 
Q 984 4106 628 3988 
L 628 4550 
Q 988 4650 1302 4700 
Q 1616 4750 1894 4750 
Q 2613 4750 3031 4423 
Q 3450 4097 3450 3541 
Q 3450 3153 3228 2886 
Q 3006 2619 2597 2516 
z
" transform="scale(0.015625)"/>
      </defs>
      <use xlink:href="#DejaVuSans-53"/>
      <use xlink:href="#DejaVuSans-65" x="63.476562"/>
      <use xlink:href="#DejaVuSans-74" x="125"/>
      <use xlink:href="#DejaVuSans-20" x="164.208984"/>
      <use xlink:href="#DejaVuSans-33" x="195.996094"/>
     </g>
    </g>
    <g id="line2d_37">
     <path d="M 56.81 350.179314 
L 66.81 350.179314 
L 76.81 350.179314 
" style="fill: none; stroke: #0000ff; stroke-width: 2; stroke-linecap: square"/>
    </g>
    <g id="text_21">
     <!-- Temporal Average -->
     <g transform="translate(84.81 353.679314) scale(0.1 -0.1)">
      <defs>
       <path id="DejaVuSans-54" d="M -19 4666 
L 3928 4666 
L 3928 4134 
L 2272 4134 
L 2272 0 
L 1638 0 
L 1638 4134 
L -19 4134 
L -19 4666 
z
" transform="scale(0.015625)"/>
       <path id="DejaVuSans-41" d="M 2188 4044 
L 1331 1722 
L 3047 1722 
L 2188 4044 
z
M 1831 4666 
L 2547 4666 
L 4325 0 
L 3669 0 
L 3244 1197 
L 1141 1197 
L 716 0 
L 50 0 
L 1831 4666 
z
" transform="scale(0.015625)"/>
       <path id="DejaVuSans-76" d="M 191 3500 
L 800 3500 
L 1894 563 
L 2988 3500 
L 3597 3500 
L 2284 0 
L 1503 0 
L 191 3500 
z
" transform="scale(0.015625)"/>
      </defs>
      <use xlink:href="#DejaVuSans-54"/>
      <use xlink:href="#DejaVuSans-65" x="44.083984"/>
      <use xlink:href="#DejaVuSans-6d" x="105.607422"/>
      <use xlink:href="#DejaVuSans-70" x="203.019531"/>
      <use xlink:href="#DejaVuSans-6f" x="266.496094"/>
      <use xlink:href="#DejaVuSans-72" x="327.677734"/>
      <use xlink:href="#DejaVuSans-61" x="368.791016"/>
      <use xlink:href="#DejaVuSans-6c" x="430.070312"/>
      <use xlink:href="#DejaVuSans-20" x="457.853516"/>
      <use xlink:href="#DejaVuSans-41" x="489.640625"/>
      <use xlink:href="#DejaVuSans-76" x="552.173828"/>
      <use xlink:href="#DejaVuSans-65" x="611.353516"/>
      <use xlink:href="#DejaVuSans-72" x="672.876953"/>
      <use xlink:href="#DejaVuSans-61" x="713.990234"/>
      <use xlink:href="#DejaVuSans-67" x="775.269531"/>
      <use xlink:href="#DejaVuSans-65" x="838.746094"/>
     </g>
    </g>
    <g id="line2d_38">
     <path d="M 56.81 364.857439 
L 66.81 364.857439 
L 76.81 364.857439 
" style="fill: none; stroke-dasharray: 7.4,3.2; stroke-dashoffset: 0; stroke: #ff0000; stroke-width: 2"/>
    </g>
    <g id="text_22">
     <!-- Overall Average = 1.21 -->
     <g transform="translate(84.81 368.357439) scale(0.1 -0.1)">
      <defs>
       <path id="DejaVuSans-4f" d="M 2522 4238 
Q 1834 4238 1429 3725 
Q 1025 3213 1025 2328 
Q 1025 1447 1429 934 
Q 1834 422 2522 422 
Q 3209 422 3611 934 
Q 4013 1447 4013 2328 
Q 4013 3213 3611 3725 
Q 3209 4238 2522 4238 
z
M 2522 4750 
Q 3503 4750 4090 4092 
Q 4678 3434 4678 2328 
Q 4678 1225 4090 567 
Q 3503 -91 2522 -91 
Q 1538 -91 948 565 
Q 359 1222 359 2328 
Q 359 3434 948 4092 
Q 1538 4750 2522 4750 
z
" transform="scale(0.015625)"/>
       <path id="DejaVuSans-3d" d="M 678 2906 
L 4684 2906 
L 4684 2381 
L 678 2381 
L 678 2906 
z
M 678 1631 
L 4684 1631 
L 4684 1100 
L 678 1100 
L 678 1631 
z
" transform="scale(0.015625)"/>
      </defs>
      <use xlink:href="#DejaVuSans-4f"/>
      <use xlink:href="#DejaVuSans-76" x="78.710938"/>
      <use xlink:href="#DejaVuSans-65" x="137.890625"/>
      <use xlink:href="#DejaVuSans-72" x="199.414062"/>
      <use xlink:href="#DejaVuSans-61" x="240.527344"/>
      <use xlink:href="#DejaVuSans-6c" x="301.806641"/>
      <use xlink:href="#DejaVuSans-6c" x="329.589844"/>
      <use xlink:href="#DejaVuSans-20" x="357.373047"/>
      <use xlink:href="#DejaVuSans-41" x="389.160156"/>
      <use xlink:href="#DejaVuSans-76" x="451.693359"/>
      <use xlink:href="#DejaVuSans-65" x="510.873047"/>
      <use xlink:href="#DejaVuSans-72" x="572.396484"/>
      <use xlink:href="#DejaVuSans-61" x="613.509766"/>
      <use xlink:href="#DejaVuSans-67" x="674.789062"/>
      <use xlink:href="#DejaVuSans-65" x="738.265625"/>
      <use xlink:href="#DejaVuSans-20" x="799.789062"/>
      <use xlink:href="#DejaVuSans-3d" x="831.576172"/>
      <use xlink:href="#DejaVuSans-20" x="915.365234"/>
      <use xlink:href="#DejaVuSans-31" x="947.152344"/>
      <use xlink:href="#DejaVuSans-2e" x="1010.775391"/>
      <use xlink:href="#DejaVuSans-32" x="1042.5625"/>
      <use xlink:href="#DejaVuSans-31" x="1106.185547"/>
     </g>
    </g>
   </g>
  </g>
 </g>
 <defs>
  <clipPath id="p94cf3b10d3">
   <rect x="47.81" y="25.44" width="805.39" height="353.997127"/>
  </clipPath>
 </defs>
</svg>
